<?xml version="1.0" encoding="UTF-8" standalone="no"?>
<svg
   xmlns:dc="http://purl.org/dc/elements/1.1/"
   xmlns:cc="http://creativecommons.org/ns#"
   xmlns:rdf="http://www.w3.org/1999/02/22-rdf-syntax-ns#"
   xmlns:svg="http://www.w3.org/2000/svg"
   xmlns="http://www.w3.org/2000/svg"
   xmlns:sodipodi="http://sodipodi.sourceforge.net/DTD/sodipodi-0.dtd"
   xmlns:inkscape="http://www.inkscape.org/namespaces/inkscape"
   id="Layer_1"
   data-name="Layer 1"
   viewBox="0 0 200 200"
   version="1.1"
   sodipodi:docname="combination_eucs_icon_bg.svg"
   inkscape:version="0.92.4 (5da689c313, 2019-01-14)">
  <metadata
     id="metadata29">
    <rdf:RDF>
      <cc:Work
         rdf:about="">
        <dc:format>image/svg+xml</dc:format>
        <dc:type
           rdf:resource="http://purl.org/dc/dcmitype/StillImage" />
        <dc:title>combination_eucs_icon</dc:title>
      </cc:Work>
    </rdf:RDF>
  </metadata>
  <sodipodi:namedview
     pagecolor="#ffffff"
     bordercolor="#666666"
     borderopacity="1"
     objecttolerance="10"
     gridtolerance="10"
     guidetolerance="10"
     inkscape:pageopacity="0"
     inkscape:pageshadow="2"
     inkscape:window-width="1920"
     inkscape:window-height="2075"
     id="namedview27"
     showgrid="false"
     inkscape:zoom="1.18"
     inkscape:cx="100"
     inkscape:cy="100"
     inkscape:window-x="1920"
     inkscape:window-y="39"
     inkscape:window-maximized="0"
     inkscape:current-layer="Layer_1" />
  <defs
     id="defs4">
    <style
       id="style2">.cls-1{fill:#203863;}.cls-2{fill:#e28683;}.cls-3{fill:#a4b494;}</style>
    <filter
       style="color-interpolation-filters:sRGB;"
       inkscape:label="Brilliance"
       id="filter1036">
      <feColorMatrix
         values="0.21 0.72 0.072 0 0 0.21 0.72 0.072 0 0 0.21 0.72 0.072 0 0 0 0 0 1 0 "
         id="feColorMatrix1034"
         result="fbSourceGraphic" />
      <feColorMatrix
         result="fbSourceGraphicAlpha"
         in="fbSourceGraphic"
         values="0 0 0 -1 0 0 0 0 -1 0 0 0 0 -1 0 0 0 0 1 0"
         id="feColorMatrix3410" />
      <feColorMatrix
         id="feColorMatrix3412"
         values="-4.3 2.79 2.79 0 -0.11 2.79 -4.3 2.79 0 -0.11 2.79 2.79 -4.3 0 -0.11 0 0 0 1 0 "
         in="fbSourceGraphic"
         result="fbSourceGraphic" />
      <feColorMatrix
         result="fbSourceGraphicAlpha"
         in="fbSourceGraphic"
         values="0 0 0 -1 0 0 0 0 -1 0 0 0 0 -1 0 0 0 0 1 0"
         id="feColorMatrix3446" />
      <feColorMatrix
         id="feColorMatrix3448"
         values="-4.3 2.79 2.79 0 -0.11 2.79 -4.3 2.79 0 -0.11 2.79 2.79 -4.3 0 -0.11 0 0 0 1 0 "
         in="fbSourceGraphic" />
    </filter>
    <filter
       style="color-interpolation-filters:sRGB;"
       inkscape:label="Brilliance"
       id="filter1040">
      <feColorMatrix
         values="0.21 0.72 0.072 0 0 0.21 0.72 0.072 0 0 0.21 0.72 0.072 0 0 0 0 0 1 0 "
         id="feColorMatrix1038"
         result="fbSourceGraphic" />
      <feColorMatrix
         result="fbSourceGraphicAlpha"
         in="fbSourceGraphic"
         values="0 0 0 -1 0 0 0 0 -1 0 0 0 0 -1 0 0 0 0 1 0"
         id="feColorMatrix3414" />
      <feColorMatrix
         id="feColorMatrix3416"
         values="-4.3 2.79 2.79 0 -0.11 2.79 -4.3 2.79 0 -0.11 2.79 2.79 -4.3 0 -0.11 0 0 0 1 0 "
         in="fbSourceGraphic"
         result="fbSourceGraphic" />
      <feColorMatrix
         result="fbSourceGraphicAlpha"
         in="fbSourceGraphic"
         values="0 0 0 -1 0 0 0 0 -1 0 0 0 0 -1 0 0 0 0 1 0"
         id="feColorMatrix3450" />
      <feColorMatrix
         id="feColorMatrix3452"
         values="-4.3 2.79 2.79 0 -0.11 2.79 -4.3 2.79 0 -0.11 2.79 2.79 -4.3 0 -0.11 0 0 0 1 0 "
         in="fbSourceGraphic" />
    </filter>
    <filter
       style="color-interpolation-filters:sRGB;"
       inkscape:label="Brilliance"
       id="filter1044">
      <feColorMatrix
         values="0.21 0.72 0.072 0 0 0.21 0.72 0.072 0 0 0.21 0.72 0.072 0 0 0 0 0 1 0 "
         id="feColorMatrix1042"
         result="fbSourceGraphic" />
      <feColorMatrix
         result="fbSourceGraphicAlpha"
         in="fbSourceGraphic"
         values="0 0 0 -1 0 0 0 0 -1 0 0 0 0 -1 0 0 0 0 1 0"
         id="feColorMatrix3418" />
      <feColorMatrix
         id="feColorMatrix3420"
         values="-4.3 2.79 2.79 0 -0.11 2.79 -4.3 2.79 0 -0.11 2.79 2.79 -4.3 0 -0.11 0 0 0 1 0 "
         in="fbSourceGraphic"
         result="fbSourceGraphic" />
      <feColorMatrix
         result="fbSourceGraphicAlpha"
         in="fbSourceGraphic"
         values="0 0 0 -1 0 0 0 0 -1 0 0 0 0 -1 0 0 0 0 1 0"
         id="feColorMatrix3454" />
      <feColorMatrix
         id="feColorMatrix3456"
         values="-4.3 2.79 2.79 0 -0.11 2.79 -4.3 2.79 0 -0.11 2.79 2.79 -4.3 0 -0.11 0 0 0 1 0 "
         in="fbSourceGraphic" />
    </filter>
    <filter
       style="color-interpolation-filters:sRGB;"
       inkscape:label="Brilliance"
       id="filter1048">
      <feColorMatrix
         values="0.21 0.72 0.072 0 0 0.21 0.72 0.072 0 0 0.21 0.72 0.072 0 0 0 0 0 1 0 "
         id="feColorMatrix1046"
         result="fbSourceGraphic" />
      <feColorMatrix
         result="fbSourceGraphicAlpha"
         in="fbSourceGraphic"
         values="0 0 0 -1 0 0 0 0 -1 0 0 0 0 -1 0 0 0 0 1 0"
         id="feColorMatrix3422" />
      <feColorMatrix
         id="feColorMatrix3424"
         values="-4.3 2.79 2.79 0 -0.11 2.79 -4.3 2.79 0 -0.11 2.79 2.79 -4.3 0 -0.11 0 0 0 1 0 "
         in="fbSourceGraphic"
         result="fbSourceGraphic" />
      <feColorMatrix
         result="fbSourceGraphicAlpha"
         in="fbSourceGraphic"
         values="0 0 0 -1 0 0 0 0 -1 0 0 0 0 -1 0 0 0 0 1 0"
         id="feColorMatrix3458" />
      <feColorMatrix
         id="feColorMatrix3460"
         values="-4.3 2.79 2.79 0 -0.11 2.79 -4.3 2.79 0 -0.11 2.79 2.79 -4.3 0 -0.11 0 0 0 1 0 "
         in="fbSourceGraphic" />
    </filter>
    <filter
       style="color-interpolation-filters:sRGB;"
       inkscape:label="Brilliance"
       id="filter1052">
      <feColorMatrix
         values="0.21 0.72 0.072 0 0 0.21 0.72 0.072 0 0 0.21 0.72 0.072 0 0 0 0 0 1 0 "
         id="feColorMatrix1050"
         result="fbSourceGraphic" />
      <feColorMatrix
         result="fbSourceGraphicAlpha"
         in="fbSourceGraphic"
         values="0 0 0 -1 0 0 0 0 -1 0 0 0 0 -1 0 0 0 0 1 0"
         id="feColorMatrix3426" />
      <feColorMatrix
         id="feColorMatrix3428"
         values="-4.3 2.79 2.79 0 -0.11 2.79 -4.3 2.79 0 -0.11 2.79 2.79 -4.3 0 -0.11 0 0 0 1 0 "
         in="fbSourceGraphic"
         result="fbSourceGraphic" />
      <feColorMatrix
         result="fbSourceGraphicAlpha"
         in="fbSourceGraphic"
         values="0 0 0 -1 0 0 0 0 -1 0 0 0 0 -1 0 0 0 0 1 0"
         id="feColorMatrix3462" />
      <feColorMatrix
         id="feColorMatrix3464"
         values="-4.3 2.79 2.79 0 -0.11 2.79 -4.3 2.79 0 -0.11 2.79 2.79 -4.3 0 -0.11 0 0 0 1 0 "
         in="fbSourceGraphic" />
    </filter>
    <filter
       style="color-interpolation-filters:sRGB;"
       inkscape:label="Brilliance"
       id="filter1056">
      <feColorMatrix
         values="0.21 0.72 0.072 0 0 0.21 0.72 0.072 0 0 0.21 0.72 0.072 0 0 0 0 0 1 0 "
         id="feColorMatrix1054"
         result="fbSourceGraphic" />
      <feColorMatrix
         result="fbSourceGraphicAlpha"
         in="fbSourceGraphic"
         values="0 0 0 -1 0 0 0 0 -1 0 0 0 0 -1 0 0 0 0 1 0"
         id="feColorMatrix3430" />
      <feColorMatrix
         id="feColorMatrix3432"
         values="-4.3 2.79 2.79 0 -0.11 2.79 -4.3 2.79 0 -0.11 2.79 2.79 -4.3 0 -0.11 0 0 0 1 0 "
         in="fbSourceGraphic"
         result="fbSourceGraphic" />
      <feColorMatrix
         result="fbSourceGraphicAlpha"
         in="fbSourceGraphic"
         values="0 0 0 -1 0 0 0 0 -1 0 0 0 0 -1 0 0 0 0 1 0"
         id="feColorMatrix3466" />
      <feColorMatrix
         id="feColorMatrix3468"
         values="-4.3 2.79 2.79 0 -0.11 2.79 -4.3 2.79 0 -0.11 2.79 2.79 -4.3 0 -0.11 0 0 0 1 0 "
         in="fbSourceGraphic" />
    </filter>
    <filter
       style="color-interpolation-filters:sRGB;"
       inkscape:label="Brilliance"
       id="filter1060">
      <feColorMatrix
         values="0.21 0.72 0.072 0 0 0.21 0.72 0.072 0 0 0.21 0.72 0.072 0 0 0 0 0 1 0 "
         id="feColorMatrix1058"
         result="fbSourceGraphic" />
      <feColorMatrix
         result="fbSourceGraphicAlpha"
         in="fbSourceGraphic"
         values="0 0 0 -1 0 0 0 0 -1 0 0 0 0 -1 0 0 0 0 1 0"
         id="feColorMatrix3434" />
      <feColorMatrix
         id="feColorMatrix3436"
         values="-4.3 2.79 2.79 0 -0.11 2.79 -4.3 2.79 0 -0.11 2.79 2.79 -4.3 0 -0.11 0 0 0 1 0 "
         in="fbSourceGraphic"
         result="fbSourceGraphic" />
      <feColorMatrix
         result="fbSourceGraphicAlpha"
         in="fbSourceGraphic"
         values="0 0 0 -1 0 0 0 0 -1 0 0 0 0 -1 0 0 0 0 1 0"
         id="feColorMatrix3470" />
      <feColorMatrix
         id="feColorMatrix3472"
         values="-4.3 2.79 2.79 0 -0.11 2.79 -4.3 2.79 0 -0.11 2.79 2.79 -4.3 0 -0.11 0 0 0 1 0 "
         in="fbSourceGraphic" />
    </filter>
    <filter
       style="color-interpolation-filters:sRGB;"
       inkscape:label="Brilliance"
       id="filter1064">
      <feColorMatrix
         values="0.21 0.72 0.072 0 0 0.21 0.72 0.072 0 0 0.21 0.72 0.072 0 0 0 0 0 1 0 "
         id="feColorMatrix1062"
         result="fbSourceGraphic" />
      <feColorMatrix
         result="fbSourceGraphicAlpha"
         in="fbSourceGraphic"
         values="0 0 0 -1 0 0 0 0 -1 0 0 0 0 -1 0 0 0 0 1 0"
         id="feColorMatrix3438" />
      <feColorMatrix
         id="feColorMatrix3440"
         values="-4.3 2.79 2.79 0 -0.11 2.79 -4.3 2.79 0 -0.11 2.79 2.79 -4.3 0 -0.11 0 0 0 1 0 "
         in="fbSourceGraphic"
         result="fbSourceGraphic" />
      <feColorMatrix
         result="fbSourceGraphicAlpha"
         in="fbSourceGraphic"
         values="0 0 0 -1 0 0 0 0 -1 0 0 0 0 -1 0 0 0 0 1 0"
         id="feColorMatrix3474" />
      <feColorMatrix
         id="feColorMatrix3476"
         values="-4.3 2.79 2.79 0 -0.11 2.79 -4.3 2.79 0 -0.11 2.79 2.79 -4.3 0 -0.11 0 0 0 1 0 "
         in="fbSourceGraphic" />
    </filter>
    <filter
       style="color-interpolation-filters:sRGB;"
       inkscape:label="Brilliance"
       id="filter1068">
      <feColorMatrix
         values="0.21 0.72 0.072 0 0 0.21 0.72 0.072 0 0 0.21 0.72 0.072 0 0 0 0 0 1 0 "
         id="feColorMatrix1066"
         result="fbSourceGraphic" />
      <feColorMatrix
         result="fbSourceGraphicAlpha"
         in="fbSourceGraphic"
         values="0 0 0 -1 0 0 0 0 -1 0 0 0 0 -1 0 0 0 0 1 0"
         id="feColorMatrix3442" />
      <feColorMatrix
         id="feColorMatrix3444"
         values="-4.3 2.79 2.79 0 -0.11 2.79 -4.3 2.79 0 -0.11 2.79 2.79 -4.3 0 -0.11 0 0 0 1 0 "
         in="fbSourceGraphic"
         result="fbSourceGraphic" />
      <feColorMatrix
         result="fbSourceGraphicAlpha"
         in="fbSourceGraphic"
         values="0 0 0 -1 0 0 0 0 -1 0 0 0 0 -1 0 0 0 0 1 0"
         id="feColorMatrix3478" />
      <feColorMatrix
         id="feColorMatrix3480"
         values="-4.3 2.79 2.79 0 -0.11 2.79 -4.3 2.79 0 -0.11 2.79 2.79 -4.3 0 -0.11 0 0 0 1 0 "
         in="fbSourceGraphic" />
    </filter>
  </defs>
  <title
     id="title6">combination_eucs_icon</title>
  <circle
     class="cls-1"
     cx="132.64"
     cy="108.79"
     r="17.64"
     id="circle8"
     style="filter:url(#filter1068)" />
  <circle
     class="cls-1"
     cx="100.96"
     cy="170.39"
     r="19.11"
     id="circle10"
     style="filter:url(#filter1064)" />
  <circle
     class="cls-1"
     cx="57.06"
     cy="42.2"
     r="19.53"
     id="circle12"
     style="filter:url(#filter1060)" />
  <circle
     class="cls-1"
     cx="172.19"
     cy="122.99"
     r="11.22"
     id="circle14"
     style="filter:url(#filter1056)" />
  <circle
     class="cls-1"
     cx="25.33"
     cy="122"
     r="8.97"
     id="circle16"
     style="filter:url(#filter1052)" />
  <circle
     class="cls-1"
     cx="146.31"
     cy="35.68"
     r="8.97"
     id="circle18"
     style="filter:url(#filter1048)" />
  <path
     class="cls-2"
     d="M147,147.75a13,13,0,0,0-3.66.29,13.36,13.36,0,0,1-10.66-2.19l-13-9.12a13.76,13.76,0,0,1-5.9-10.15c0-.19,0-.39,0-.58a12.62,12.62,0,0,0-25.14,1.52v.06a11.36,11.36,0,0,1-4.49,9.18l-12.27,9.15A13.92,13.92,0,0,1,60,148.12a12.62,12.62,0,1,0,9.44,13.14c0-.24,0-.48,0-.71A13.72,13.72,0,0,1,75,149.72l10.66-7.94a13.52,13.52,0,0,1,12-2.17,12.64,12.64,0,0,0,7.74-.16c4.14-1.43,9.2-.3,12.78,2.22l9.8,6.87A13.56,13.56,0,0,1,133.51,160v.58A12.62,12.62,0,1,0,147,147.75Z"
     id="path20"
     style="filter:url(#filter1044)" />
  <path
     class="cls-3"
     d="M76.87,95.41a12.46,12.46,0,0,0-4.71.56,13.68,13.68,0,0,1-11.92-1.76L45.44,84A13.57,13.57,0,0,1,39.7,73.53c0-.17,0-.35,0-.52a12.62,12.62,0,1,0-8.79,13.28,13.61,13.61,0,0,1,11.81,1.8L57.5,98.31a13.44,13.44,0,0,1,5.9,10.31c0,.2,0,.41,0,.61A12.62,12.62,0,1,0,76.87,95.41Z"
     id="path22"
     style="filter:url(#filter1040)" />
  <path
     class="cls-2"
     d="M185.47,73.27a12.61,12.61,0,0,0-22.63-6.64,13.18,13.18,0,0,1-10.49,5.23H140.48a13.4,13.4,0,0,1-10.64-5.32,12.1,12.1,0,0,0-6-4.11,13.64,13.64,0,0,1-8.69-8.5L110.7,41.19A13.18,13.18,0,0,1,112,29.9a12.53,12.53,0,0,0,1.88-6.62c0-8-5.37-12.72-12.76-12.72V10.5c-7.39,0-12.75,4.68-12.75,12.72a12.59,12.59,0,0,0,1.88,6.63,13.19,13.19,0,0,1,1.26,11.28L87,53.87a13.61,13.61,0,0,1-8.69,8.51c-3.89,1.25-8.58,4.52-8.58,12.72,0,6.23,5.92,11.59,12,11.65,7.39.09,13.51-5.32,13.51-12.58a12.56,12.56,0,0,0-2-6.86,13.56,13.56,0,0,1-1.57-11.87l6-17.34a3.36,3.36,0,0,1,3.18-2.26h.16v.06h.16a3.35,3.35,0,0,1,3.18,2.25l6,17.34a13.61,13.61,0,0,1-1.58,11.88,12.52,12.52,0,0,0-2,6.85c0,7.27,6.12,12.67,13.51,12.59a12.71,12.71,0,0,0,9.58-4.91,13.34,13.34,0,0,1,10.49-5.11H152.3A13.42,13.42,0,0,1,162.91,82a12.62,12.62,0,0,0,22.56-8.69Z"
     id="path24"
     style="filter:url(#filter1036)" />
</svg>
