<svg id="Layer_1" data-name="Layer 1" xmlns="http://www.w3.org/2000/svg" viewBox="0 0 1000 580.38"><defs><style>.cls-1{fill:#203863;}.cls-2{fill:#e28683;}.cls-3{fill:#a4b494;}</style></defs><title>C3_verticl_eucs_logo</title><circle class="cls-1" cx="578.89" cy="255.1" r="42.63"/><circle class="cls-1" cx="502.32" cy="404" r="46.19"/><circle class="cls-1" cx="396.21" cy="94.14" r="47.21"/><circle class="cls-1" cx="674.48" cy="289.42" r="27.12"/><circle class="cls-1" cx="319.53" cy="287.03" r="21.67"/><circle class="cls-1" cx="611.92" cy="78.4" r="21.67"/><path class="cls-2" d="M613.47,349.27a30.72,30.72,0,0,0-8.83.71,32.36,32.36,0,0,1-25.78-5.31l-31.31-22.05a33.21,33.21,0,0,1-14.26-24.52c0-.47-.08-.94-.14-1.41a30.49,30.49,0,0,0-60.76,3.69v.13a27.36,27.36,0,0,1-10.84,22.18l-29.67,22.13a33.69,33.69,0,0,1-28.6,5.34,30.5,30.5,0,1,0,22.84,31.76c0-.58.07-1.15.08-1.72A33.18,33.18,0,0,1,439.46,354l25.75-19.2a32.7,32.7,0,0,1,28.92-5.24,30.74,30.74,0,0,0,18.71-.39c10-3.46,22.23-.74,30.9,5.36l23.67,16.61A32.69,32.69,0,0,1,581,378.94c0,.47,0,.93,0,1.4a30.49,30.49,0,1,0,32.47-31.07Z"/><path class="cls-3" d="M444.1,222.75a30.7,30.7,0,0,0-11.39,1.36,33,33,0,0,1-28.81-4.26l-35.77-24.68a32.74,32.74,0,0,1-13.87-25.3c0-.42-.06-.84-.1-1.26a30.49,30.49,0,1,0-21.25,32.11,33,33,0,0,1,28.56,4.34l35.8,24.7a32.49,32.49,0,0,1,14.25,24.94c0,.48.06,1,.11,1.46a30.5,30.5,0,1,0,32.47-33.41Z"/><path class="cls-2" d="M706.59,169.25a30.49,30.49,0,0,0-54.71-16.05,31.81,31.81,0,0,1-25.34,12.63H597.85A32.35,32.35,0,0,1,572.13,153a29.41,29.41,0,0,0-14.58-9.93,32.94,32.94,0,0,1-21-20.55l-10.7-30.8a31.9,31.9,0,0,1,3-27.27,30.32,30.32,0,0,0,4.54-16c0-19.43-13-30.76-30.82-30.76v-.13c-17.87,0-30.83,11.32-30.83,30.75a30.32,30.32,0,0,0,4.54,16,31.9,31.9,0,0,1,3.05,27.27l-10.7,30.8a33,33,0,0,1-21,20.56c-9.4,3-20.75,10.92-20.75,30.74,0,15.08,14.3,28,29.1,28.18,17.86.2,32.65-12.87,32.65-30.42a30.31,30.31,0,0,0-4.9-16.58,32.88,32.88,0,0,1-3.8-28.7l14.57-41.91a8.12,8.12,0,0,1,7.68-5.46h.39v.14H503a8.12,8.12,0,0,1,7.67,5.45l14.57,41.92a32.85,32.85,0,0,1-3.8,28.69,30.36,30.36,0,0,0-4.9,16.58c0,17.56,14.79,30.62,32.66,30.42,8.9-.1,17.63-4.83,23.17-11.87a32.23,32.23,0,0,1,25.33-12.35h28.71a32.42,32.42,0,0,1,25.64,12.51,30.5,30.5,0,0,0,54.53-21Z"/><path class="cls-1" d="M81.16,533a44.73,44.73,0,0,1-.29,5.14H40.72c1.64,8.19,7.36,11.75,14.55,11.75a22.94,22.94,0,0,0,14.32-5.43l8.94,9.81c-6.43,5.91-14.61,8.6-24.13,8.6C37,562.86,25,551.05,25,533.23s11.69-30,28.64-30C69.94,503.25,81.1,515.34,81.16,533Zm-40.38-5.26H65.85c-1.4-7.24-5.79-11.33-12.33-11.33C46.33,516.4,42.12,520.72,40.78,527.73Z"/><path class="cls-1" d="M144.39,537.26c0,17.88-12.62,25.6-26.76,25.6s-26.82-7.72-26.82-25.6V504.77h15.25v31.14c0,9.06,5,12.74,11.57,12.74S129.2,545,129.2,535.91V504.77h15.19Z"/><path class="cls-1" d="M191.48,537H156.94V523.64h34.54Z"/><path class="cls-1" d="M254.81,513.94l-11,9.18c-3.45-3.69-7.13-5.67-12.1-5.67-7.89,0-14.2,6.19-14.2,15.6s6.25,15.6,14.14,15.6A16.56,16.56,0,0,0,244,542.93l10.87,9.29c-5.31,6.84-13.26,10.64-22.73,10.64-18.06,0-30.15-12.63-30.15-29.81s12.09-29.8,30.15-29.8C241.6,503.25,249.6,507.1,254.81,513.94Z"/><path class="cls-1" d="M280.15,486.24a9.73,9.73,0,1,1-9.76-9.82A9.69,9.69,0,0,1,280.15,486.24Zm-2,75.15H262.85V504.77H278.1Z"/><path class="cls-1" d="M332.22,518.32H311.71V539c0,7.07,3.74,9.64,8.48,9.64,3.62,0,7.54-1.81,10.63-3.68l5.61,11.92a31.58,31.58,0,0,1-18.76,6c-14,0-21.21-8-21.21-22.62V518.32H285.53V504.77h10.93V487.94h15.25v16.83h20.51Z"/><path class="cls-1" d="M360.92,486.24a9.73,9.73,0,1,1-9.76-9.82A9.68,9.68,0,0,1,360.92,486.24Zm-2,75.15H343.62V504.77h15.26Z"/><path class="cls-1" d="M418.09,515.93l-27.93,31.85h28.58v13.61H369.18v-11l28.58-32.09H370.17V504.77h47.92Z"/><path class="cls-1" d="M481.67,533a44.73,44.73,0,0,1-.29,5.14H441.23c1.63,8.19,7.36,11.75,14.55,11.75a22.94,22.94,0,0,0,14.32-5.43l8.94,9.81c-6.43,5.91-14.61,8.6-24.14,8.6-17.35,0-29.39-11.81-29.39-29.63s11.69-30,28.63-30C470.45,503.25,481.61,515.34,481.67,533Zm-40.38-5.26h25.07C465,520.49,460.57,516.4,454,516.4,446.84,516.4,442.63,520.72,441.29,527.73Z"/><path class="cls-1" d="M545.73,525.34v36H530.48V530.25c0-8.19-4.09-12.69-11.05-12.69-6.54,0-12,4.27-12,12.8v31H492.2V504.77h14.85v6.66c4-6,10.22-8.18,16.65-8.18C536.56,503.25,545.73,512.19,545.73,525.34Z"/><path class="cls-1" d="M580.18,551.46a11.34,11.34,0,1,1-11.28-11.28A11.58,11.58,0,0,1,580.18,551.46Z"/><path class="cls-1" d="M632.78,520.54c-4.5-2.22-11.69-4.55-18.06-4.61-5.78,0-8.7,2-8.7,5.14,0,3.27,4.09,4.09,9.23,4.85l5,.76c12.28,1.87,19.11,7.36,19.11,17,0,11.69-9.58,19.23-26,19.23-7.71,0-17.82-1.47-25.19-6.67l6-11.57c4.85,3.22,10.75,5.55,19.29,5.55,7.07,0,10.46-2,10.46-5.31,0-2.75-2.87-4.27-9.41-5.21l-4.62-.64c-13.09-1.81-19.58-7.54-19.58-17.18,0-11.63,9-18.52,23.91-18.52a50.73,50.73,0,0,1,23.66,5.37Z"/><path class="cls-1" d="M698.59,513.94l-11,9.18c-3.45-3.69-7.13-5.67-12.1-5.67-7.89,0-14.2,6.19-14.2,15.6s6.26,15.6,14.14,15.6a16.56,16.56,0,0,0,12.33-5.72l10.87,9.29c-5.31,6.84-13.26,10.64-22.73,10.64-18.06,0-30.15-12.63-30.15-29.81s12.09-29.8,30.15-29.8C685.38,503.25,693.39,507.1,698.59,513.94Z"/><path class="cls-1" d="M723.93,486.24a9.73,9.73,0,1,1-9.76-9.82A9.69,9.69,0,0,1,723.93,486.24Zm-2,75.15H706.63V504.77h15.26Z"/><path class="cls-1" d="M788.17,533a42.57,42.57,0,0,1-.29,5.14H747.73c1.64,8.19,7.37,11.75,14.55,11.75a22.94,22.94,0,0,0,14.32-5.43l8.94,9.81c-6.43,5.91-14.61,8.6-24.13,8.6-17.36,0-29.4-11.81-29.4-29.63s11.69-30,28.64-30C777,503.25,788.11,515.34,788.17,533Zm-40.38-5.26h25.07c-1.4-7.24-5.78-11.33-12.33-11.33C753.34,516.4,749.13,520.72,747.79,527.73Z"/><path class="cls-1" d="M852.24,525.34v36H837V530.25c0-8.19-4.09-12.69-11-12.69-6.55,0-12,4.27-12,12.8v31H798.71V504.77h14.84v6.66c4-6,10.23-8.18,16.66-8.18C843.06,503.25,852.24,512.19,852.24,525.34Z"/><path class="cls-1" d="M915,513.94l-11,9.18c-3.45-3.69-7.13-5.67-12.1-5.67-7.89,0-14.2,6.19-14.2,15.6s6.25,15.6,14.14,15.6a16.56,16.56,0,0,0,12.33-5.72l10.87,9.29c-5.32,6.84-13.26,10.64-22.73,10.64-18.06,0-30.16-12.63-30.16-29.81s12.1-29.8,30.16-29.8C901.81,503.25,909.81,507.1,915,513.94Z"/><path class="cls-1" d="M975,533a44.73,44.73,0,0,1-.29,5.14H934.56c1.64,8.19,7.36,11.75,14.55,11.75a22.94,22.94,0,0,0,14.32-5.43l8.94,9.81c-6.43,5.91-14.61,8.6-24.14,8.6-17.35,0-29.39-11.81-29.39-29.63s11.69-30,28.64-30C963.78,503.25,974.94,515.34,975,533Zm-40.38-5.26h25.07c-1.4-7.24-5.79-11.33-12.33-11.33C940.17,516.4,936,520.72,934.62,527.73Z"/></svg>