<?xml version="1.0" encoding="UTF-8" standalone="no"?>
<!-- Created with Inkscape (http://www.inkscape.org/) -->

<svg
   xmlns:dc="http://purl.org/dc/elements/1.1/"
   xmlns:cc="http://creativecommons.org/ns#"
   xmlns:rdf="http://www.w3.org/1999/02/22-rdf-syntax-ns#"
   xmlns:svg="http://www.w3.org/2000/svg"
   xmlns="http://www.w3.org/2000/svg"
   xmlns:sodipodi="http://sodipodi.sourceforge.net/DTD/sodipodi-0.dtd"
   xmlns:inkscape="http://www.inkscape.org/namespaces/inkscape"
   version="1.1"
   id="svg2"
   xml:space="preserve"
   width="666.66669"
   height="666.66669"
   viewBox="0 0 666.66669 666.66669"
   sodipodi:docname="search.svg"
   inkscape:version="0.92.4 (5da689c313, 2019-01-14)"><metadata
     id="metadata8"><rdf:RDF><cc:Work
         rdf:about=""><dc:format>image/svg+xml</dc:format><dc:type
           rdf:resource="http://purl.org/dc/dcmitype/StillImage" /><dc:title></dc:title></cc:Work></rdf:RDF></metadata><defs
     id="defs6"><clipPath
       clipPathUnits="userSpaceOnUse"
       id="clipPath18"><path
         d="M 0,500 H 500 V 0 H 0 Z"
         id="path16"
         inkscape:connector-curvature="0" /></clipPath><clipPath
       clipPathUnits="userSpaceOnUse"
       id="clipPath30"><path
         d="M 0,500 H 500 V 0 H 0 Z"
         id="path28"
         inkscape:connector-curvature="0" /></clipPath><clipPath
       clipPathUnits="userSpaceOnUse"
       id="clipPath42"><path
         d="m 393.495,282.236 h 43.417 V 189.82 h -43.417 z"
         id="path40"
         inkscape:connector-curvature="0" /></clipPath><clipPath
       clipPathUnits="userSpaceOnUse"
       id="clipPath74"><path
         d="M 55.6486,238.019 H 108 V 186.88 H 55.6486 Z"
         id="path72"
         inkscape:connector-curvature="0" /></clipPath><clipPath
       clipPathUnits="userSpaceOnUse"
       id="clipPath106"><path
         d="M 0,500 H 500 V 0 H 0 Z"
         id="path104"
         inkscape:connector-curvature="0" /></clipPath><clipPath
       clipPathUnits="userSpaceOnUse"
       id="clipPath158"><path
         d="M 0,500 H 500 V 0 H 0 Z"
         id="path156"
         inkscape:connector-curvature="0" /></clipPath><clipPath
       clipPathUnits="userSpaceOnUse"
       id="clipPath194"><path
         d="M 0,500 H 500 V 0 H 0 Z"
         id="path192"
         inkscape:connector-curvature="0" /></clipPath><clipPath
       clipPathUnits="userSpaceOnUse"
       id="clipPath206"><path
         d="m 136.984,214.863 h 37.099 v -60.946 h -37.099 z"
         id="path204"
         inkscape:connector-curvature="0" /></clipPath><clipPath
       clipPathUnits="userSpaceOnUse"
       id="clipPath226"><path
         d="m 162.754,279.159 h 23.813 v -60.713 h -23.813 z"
         id="path224"
         inkscape:connector-curvature="0" /></clipPath><clipPath
       clipPathUnits="userSpaceOnUse"
       id="clipPath242"><path
         d="m 176.936,305.036 h 69.06 v -89.161 h -69.06 z"
         id="path240"
         inkscape:connector-curvature="0" /></clipPath><clipPath
       clipPathUnits="userSpaceOnUse"
       id="clipPath258"><path
         d="m 185.026,298.034 h 53.96 v -75.16 h -53.96 z"
         id="path256"
         inkscape:connector-curvature="0" /></clipPath><clipPath
       clipPathUnits="userSpaceOnUse"
       id="clipPath274"><path
         d="m 183.936,298.034 h 49.01 v -71.77 h -49.01 z"
         id="path272"
         inkscape:connector-curvature="0" /></clipPath><clipPath
       clipPathUnits="userSpaceOnUse"
       id="clipPath290"><path
         d="M 0,500 H 500 V 0 H 0 Z"
         id="path288"
         inkscape:connector-curvature="0" /></clipPath></defs><sodipodi:namedview
     pagecolor="#ffffff"
     bordercolor="#666666"
     borderopacity="1"
     objecttolerance="10"
     gridtolerance="10"
     guidetolerance="10"
     inkscape:pageopacity="0"
     inkscape:pageshadow="2"
     inkscape:window-width="3840"
     inkscape:window-height="2121"
     id="namedview4"
     showgrid="false"
     inkscape:zoom="1.416"
     inkscape:cx="277.91533"
     inkscape:cy="364.77286"
     inkscape:window-x="0"
     inkscape:window-y="39"
     inkscape:window-maximized="1"
     inkscape:current-layer="g10" /><g
     id="g10"
     inkscape:groupmode="layer"
     inkscape:label="2791941"
     transform="matrix(1.3333333,0,0,-1.3333333,0,666.66667)"><g
       id="g12"><g
         id="g14"
         clip-path="url(#clipPath18)"><g
           id="g20"
           transform="translate(128.2227,96.1323)"><path
             d="m 0,0 c 70.751,-37.765 185.462,-37.766 256.212,-0.001 70.751,37.766 70.751,98.995 0,136.759 C 185.461,174.524 70.75,174.524 -0.001,136.759 -70.752,98.995 -70.752,37.765 0,0"
             style="fill:#ebebeb;fill-opacity:1;fill-rule:nonzero;stroke:none"
             id="path22"
             inkscape:connector-curvature="0" /></g></g></g><g
       id="g24"><g
         id="g26"
         clip-path="url(#clipPath30)"><g
           id="g32"
           transform="translate(405.2432,189.8198)"><path
             d="m 0,0 -10.324,5.96 c 0,0 -2.53,22.111 -0.847,39.234 2.364,24.061 17.903,53.013 36.442,46.214 18.538,-6.8 -8.5,-31.304 -14.518,-51.712 C 4.734,19.288 0,0 0,0"
             style="fill:#27debf;fill-opacity:1;fill-rule:nonzero;stroke:none"
             id="path34"
             inkscape:connector-curvature="0" /></g><g
           id="g36"><g
             id="g38" /><g
             id="g50"><g
               clip-path="url(#clipPath42)"
               id="g48"
               style="opacity:0.10000598"><g
                 transform="translate(405.2432,189.8198)"
                 id="g46"><path
                   d="m 0,0 -10.324,5.96 c 0,0 -2.53,22.111 -0.847,39.234 2.364,24.061 17.903,53.013 36.442,46.214 18.538,-6.8 -8.5,-31.304 -14.518,-51.712 C 4.734,19.288 0,0 0,0"
                   style="fill:#000000;fill-opacity:1;fill-rule:nonzero;stroke:none"
                   id="path44"
                   inkscape:connector-curvature="0" /></g></g></g></g><g
           id="g52"
           transform="translate(399.8652,192.5249)"><path
             d="M 0,0 C -0.196,0 -0.367,0.146 -0.393,0.347 -3.904,27.313 5.703,68.15 25.1,83.634 c 0.173,0.137 0.423,0.108 0.559,-0.063 0.137,-0.172 0.109,-0.422 -0.063,-0.56 C 6.406,67.693 -3.087,27.206 0.396,0.45 0.425,0.231 0.271,0.032 0.054,0.004 0.036,0.001 0.018,0 0,0"
             style="fill:#ffffff;fill-opacity:1;fill-rule:nonzero;stroke:none"
             id="path54"
             inkscape:connector-curvature="0" /></g><g
           id="g56"
           transform="translate(410.7529,185.5542)"><path
             d="m 0,0 -7.347,4.242 c 0,0 -1.249,15.172 6.19,33.603 6.475,16.046 22.544,29.358 30.625,26.56 8.081,-2.797 7.881,-8.528 3.94,-14.539 C 29.469,43.854 5.497,29.526 0,0"
             style="fill:#27debf;fill-opacity:1;fill-rule:nonzero;stroke:none"
             id="path58"
             inkscape:connector-curvature="0" /></g><g
           id="g60"
           transform="translate(406.1982,185.1558)"><path
             d="m 0,0 c -0.008,0 -0.017,0 -0.025,0.001 -0.22,0.014 -0.385,0.203 -0.371,0.423 2.42,37.757 21.521,56.327 32.992,59.163 0.217,0.051 0.429,-0.078 0.483,-0.291 0.053,-0.214 -0.078,-0.43 -0.292,-0.483 C 20.703,55.825 2.665,35.719 0.398,0.373 0.384,0.162 0.209,0 0,0"
             style="fill:#ffffff;fill-opacity:1;fill-rule:nonzero;stroke:none"
             id="path62"
             inkscape:connector-curvature="0" /></g><g
           id="g64"
           transform="translate(107.958,186.8794)"><path
             d="m 0,0 c 0,0 1.369,22.173 -11.511,37.366 -12.881,15.193 -29.645,15.144 -35.201,12.312 -5.557,-2.832 -9.272,-10.922 0.278,-16.712 9.552,-5.791 29.86,-17.371 33.234,-27.711 z"
             style="fill:#27debf;fill-opacity:1;fill-rule:nonzero;stroke:none"
             id="path66"
             inkscape:connector-curvature="0" /></g><g
           id="g68"><g
             id="g70" /><g
             id="g82"><g
               clip-path="url(#clipPath74)"
               id="g80"
               style="opacity:0.10000598"><g
                 transform="translate(107.958,186.8794)"
                 id="g78"><path
                   d="m 0,0 c 0,0 1.369,22.173 -11.511,37.366 -12.881,15.193 -29.645,15.144 -35.201,12.312 -5.557,-2.832 -9.272,-10.922 0.278,-16.712 9.552,-5.791 29.86,-17.371 33.234,-27.711 z"
                   style="fill:#000000;fill-opacity:1;fill-rule:nonzero;stroke:none"
                   id="path76"
                   inkscape:connector-curvature="0" /></g></g></g></g><g
           id="g84"
           transform="translate(101.9399,192.4292)"><path
             d="m 0,0 c -0.252,0 -0.469,0.189 -0.496,0.446 -2.657,24.533 -27.17,38.13 -36.945,39.667 -0.273,0.043 -0.459,0.299 -0.416,0.573 0.043,0.273 0.305,0.454 0.572,0.416 C -27.288,39.529 -2.218,25.629 0.498,0.554 0.527,0.279 0.329,0.032 0.055,0.003 0.036,0.001 0.019,0 0,0"
             style="fill:#ffffff;fill-opacity:1;fill-rule:nonzero;stroke:none"
             id="path86"
             inkscape:connector-curvature="0" /></g><g
           id="g88"
           transform="translate(97.1709,198.0566)"><path
             d="m 0,0 c -3.229,7.359 -6.88,10.661 -17.383,8.903 -10.503,-1.757 -8.95,-1.487 -21.851,1.8 -5.415,1.379 -11.508,1.596 -16.704,-0.741 -4.389,-1.974 -7.673,-6.003 -3.421,-10.26 4.778,-4.782 11.911,-6.388 17.217,-10.577 1.145,-0.904 2.229,-1.97 2.762,-3.329 1.386,-3.539 -1.39,-7.527 -0.581,-11.242 0.78,-3.589 4.71,-5.686 8.374,-5.928 3.664,-0.242 7.269,0.861 10.918,1.278 3.648,0.417 7.751,-0.029 10.264,-2.706 2.7,-2.879 2.771,-7.465 5.28,-10.512 3.769,-4.578 13.024,-5.843 17.992,-2.979 l 13.088,7.545 C 34.609,-27.084 21.003,-17.849 13.809,-8.797 10.322,-4.411 1.939,-4.422 0,0"
             style="fill:#27debf;fill-opacity:1;fill-rule:nonzero;stroke:none"
             id="path90"
             inkscape:connector-curvature="0" /></g><g
           id="g92"
           transform="translate(115.0015,166.3306)"><path
             d="m 0,0 c -0.167,0 -0.331,0.084 -0.426,0.237 -14.93,24.194 -55.538,36.427 -69.955,37.452 -0.275,0.02 -0.483,0.259 -0.464,0.535 0.02,0.276 0.285,0.486 0.534,0.464 C -55.742,37.651 -14.697,25.267 0.426,0.763 0.57,0.527 0.498,0.22 0.263,0.074 0.181,0.024 0.09,0 0,0"
             style="fill:#ffffff;fill-opacity:1;fill-rule:nonzero;stroke:none"
             id="path94"
             inkscape:connector-curvature="0" /></g><g
           id="g96"
           transform="translate(67.7065,177.7319)"><path
             d="m 0,0 c -0.152,0 -0.304,0.069 -0.401,0.202 -0.165,0.222 -0.119,0.535 0.103,0.699 0.522,0.388 12.918,9.488 24.968,9.671 h 0.008 c 0.272,0 0.496,-0.218 0.5,-0.492 C 25.182,9.804 24.962,9.576 24.686,9.572 12.955,9.394 0.423,0.191 0.298,0.099 0.208,0.032 0.104,0 0,0"
             style="fill:#ffffff;fill-opacity:1;fill-rule:nonzero;stroke:none"
             id="path98"
             inkscape:connector-curvature="0" /></g></g></g><g
       id="g100"><g
         id="g102"
         clip-path="url(#clipPath106)"><g
           id="g108"
           transform="translate(114.0708,157.8286)"><path
             d="m 0,0 c 0,-2.59 1.939,-5.81 4.331,-7.19 l 121.325,-70.048 c 2.392,-1.38 6.269,-1.38 8.66,0 l 166.008,95.844 c 2.391,1.381 4.33,4.601 4.33,7.191 0,2.591 -1.939,5.81 -4.33,7.191 l -121.326,70.047 c -2.391,1.381 -6.269,1.381 -8.661,0 L 4.33,7.191 C 1.938,5.81 0,2.591 0,0"
             style="fill:#37474f;fill-opacity:1;fill-rule:nonzero;stroke:none"
             id="path110"
             inkscape:connector-curvature="0" /></g><g
           id="g112"
           transform="translate(164.127,191.4194)"><path
             d="m 0,0 -45.727,-26.4 c -2.391,-1.381 -4.329,-4.6 -4.329,-7.191 0,-2.59 1.939,-5.809 4.33,-7.19 L 75.6,-110.829 c 1.196,-0.69 2.763,-1.035 4.33,-1.035 L 79.93,0 Z"
             style="fill:#263238;fill-opacity:1;fill-rule:nonzero;stroke:none"
             id="path114"
             inkscape:connector-curvature="0" /></g><g
           id="g116"
           transform="translate(110.0088,164.8643)"><path
             d="M 0,0 C -2.243,1.295 -4.062,4.584 -4.062,7.345 V 152.13 c 0,2.762 1.938,6.12 4.33,7.5 l 166.007,95.844 c 2.391,1.381 6.149,1.45 8.392,0.155 2.244,-1.295 4.062,-4.584 4.062,-7.345 V 103.499 c 0,-2.761 -1.938,-6.119 -4.33,-7.5 L 8.392,0.155 C 6,-1.226 2.243,-1.295 0,0"
             style="fill:#455a64;fill-opacity:1;fill-rule:nonzero;stroke:none"
             id="path118"
             inkscape:connector-curvature="0" /></g><g
           id="g120"
           transform="translate(126.2578,310.2676)"><path
             d="m 0,0 -19.043,10.995 c -0.784,-1.358 -1.269,-2.888 -1.269,-4.268 l 0.001,-144.785 c 0,-2.761 1.819,-6.05 4.062,-7.345 2.243,-1.295 6,-1.226 8.392,0.155 l 18.935,10.932 z"
             style="fill:#263238;fill-opacity:1;fill-rule:nonzero;stroke:none"
             id="path122"
             inkscape:connector-curvature="0" /></g><g
           id="g124"
           transform="translate(114.0703,312.3042)"><path
             d="m 0,0 v -144.785 c 0,-2.761 1.939,-3.881 4.33,-2.5 l 166.008,95.844 c 2.391,1.381 4.33,4.739 4.33,7.5 v 144.785 c 0,2.761 -1.939,3.881 -4.33,2.5 L 4.33,7.5 C 1.939,6.119 0,2.761 0,0"
             style="fill:#37474f;fill-opacity:1;fill-rule:nonzero;stroke:none"
             id="path126"
             inkscape:connector-curvature="0" /></g><g
           id="g128"
           transform="translate(118.4004,160.0195)"><path
             d="m 0,0 121.327,-70.048 c 2.391,-1.38 6.269,-1.38 8.66,0 l 166.007,95.845 c 2.392,1.381 2.392,3.619 0,5 l -121.326,70.047 c -2.391,1.381 -6.269,1.381 -8.66,0 L 0,5 C -2.391,3.619 -2.391,1.38 0,0"
             style="fill:#455a64;fill-opacity:1;fill-rule:nonzero;stroke:none"
             id="path130"
             inkscape:connector-curvature="0" /></g><g
           id="g132"
           transform="translate(120.7295,311.769)"><path
             d="m 0,0 161.35,93.154 c 1.434,0.828 2.598,0.157 2.598,-1.5 V -33.68 c 0,-1.657 -1.164,-3.672 -2.598,-4.5 L 0,-131.333 c -1.435,-0.828 -2.598,-0.156 -2.598,1.501 V -4.5 c 0,1.657 1.163,3.671 2.598,4.5"
             style="fill:#ffffff;fill-opacity:1;fill-rule:nonzero;stroke:none"
             id="path134"
             inkscape:connector-curvature="0" /></g><g
           id="g136"
           transform="translate(132.4834,163.7686)"><path
             d="m 0,0 154.091,88.963 c 1.196,0.691 3.135,0.691 4.331,0 l 7.881,-4.55 c 1.195,-0.69 1.195,-1.809 0,-2.499 L 12.188,-7.036 c -1.195,-0.69 -3.134,-0.69 -4.33,0 L 0,-2.5 c -1.196,0.69 -1.196,1.81 0,2.5"
             style="fill:#263238;fill-opacity:1;fill-rule:nonzero;stroke:none"
             id="path138"
             inkscape:connector-curvature="0" /></g><g
           id="g140"
           transform="translate(152.7959,152.0425)"><path
             d="m 0,0 154.089,88.964 c 1.196,0.691 3.135,0.691 4.33,0 l 48.477,-27.988 c 1.196,-0.691 1.195,-1.81 0,-2.5 L 52.982,-30.366 c -1.195,-0.69 -3.136,-0.693 -4.334,-0.007 L 0.004,-2.493 C -1.194,-1.807 -1.196,-0.69 0,0"
             style="fill:#263238;fill-opacity:1;fill-rule:nonzero;stroke:none"
             id="path142"
             inkscape:connector-curvature="0" /></g><g
           id="g144"
           transform="translate(235.6958,189.9277)"><path
             d="M 0,0 C 0.22,-0.127 0.565,-0.134 0.77,-0.016 L 5.594,2.769 C 5.799,2.888 5.787,3.086 5.567,3.213 l -5.579,3.222 c -0.22,0.127 -0.565,0.134 -0.77,0.016 L -5.606,3.665 C -5.811,3.546 -5.799,3.348 -5.579,3.221 Z m 57.407,35.507 c 0.22,-0.127 0.564,-0.134 0.769,-0.016 L 63,38.277 c 0.206,0.118 0.194,0.317 -0.027,0.444 l -1.484,0.857 c -0.221,0.128 -0.566,0.135 -0.77,0.016 L 55.894,36.809 C 55.69,36.69 55.702,36.491 55.921,36.364 Z m 43.449,-16.515 4.824,2.786 c 0.205,0.118 0.194,0.317 -0.027,0.444 l -5.578,3.221 c -0.22,0.127 -0.566,0.134 -0.771,0.016 L 94.48,22.673 c -0.205,-0.118 -0.192,-0.317 0.027,-0.444 l 5.579,-3.221 c 0.22,-0.127 0.565,-0.134 0.77,-0.016 M 83.228,36.883 c 0.221,-0.127 0.565,-0.134 0.771,-0.016 l 4.824,2.785 c 0.205,0.119 0.192,0.318 -0.028,0.445 l -5.579,3.221 c -0.219,0.127 -0.564,0.134 -0.769,0.016 L 77.623,40.548 C 77.417,40.43 77.429,40.23 77.65,40.104 Z m -11.719,6.766 c 0.221,-0.127 0.565,-0.134 0.77,-0.016 l 4.825,2.785 c 0.205,0.119 0.192,0.318 -0.028,0.445 l -1.485,0.858 c -0.22,0.126 -0.564,0.133 -0.769,0.015 l -4.825,-2.785 c -0.205,-0.118 -0.193,-0.318 0.027,-0.445 z M 50.355,31.436 c 0.221,-0.127 0.565,-0.134 0.77,-0.016 l 4.825,2.786 c 0.205,0.118 0.192,0.317 -0.028,0.444 l -1.485,0.857 c -0.22,0.127 -0.564,0.135 -0.77,0.016 L 48.843,32.737 C 48.638,32.619 48.65,32.42 48.871,32.293 Z M 14.103,8.142 c 0.22,-0.127 0.564,-0.134 0.769,-0.016 l 4.825,2.786 c 0.205,0.118 0.192,0.317 -0.028,0.444 l -5.578,3.221 c -0.22,0.127 -0.565,0.133 -0.77,0.015 L 8.497,11.807 C 8.292,11.688 8.304,11.49 8.524,11.363 Z M 7.051,4.07 C 7.271,3.944 7.616,3.937 7.821,4.055 l 4.825,2.785 c 0.205,0.118 0.192,0.318 -0.028,0.445 L 7.04,10.505 C 6.819,10.633 6.475,10.64 6.27,10.521 L 1.445,7.736 C 1.24,7.617 1.252,7.418 1.473,7.292 Z m 29.764,17.185 c 0.22,-0.127 0.565,-0.134 0.77,-0.016 l 4.825,2.786 c 0.204,0.118 0.192,0.317 -0.028,0.444 l -5.579,3.22 c -0.22,0.128 -0.564,0.135 -0.769,0.017 L 31.209,24.92 c -0.205,-0.118 -0.193,-0.317 0.028,-0.444 z M 21.154,12.213 c 0.22,-0.127 0.564,-0.134 0.769,-0.016 l 4.826,2.785 c 0.204,0.119 0.192,0.318 -0.029,0.445 l -5.578,3.221 c -0.221,0.126 -0.564,0.134 -0.769,0.015 l -4.825,-2.785 c -0.205,-0.118 -0.193,-0.317 0.028,-0.444 z m 22.713,13.113 c 0.219,-0.127 0.564,-0.134 0.769,-0.015 l 4.824,2.785 c 0.206,0.118 0.193,0.317 -0.027,0.444 l -5.578,3.221 c -0.221,0.127 -0.565,0.134 -0.771,0.016 L 38.26,28.991 c -0.204,-0.118 -0.192,-0.317 0.028,-0.444 z M 29.764,17.184 c 0.22,-0.127 0.565,-0.134 0.77,-0.016 l 4.824,2.786 c 0.205,0.118 0.193,0.317 -0.027,0.444 l -5.579,3.221 c -0.22,0.127 -0.565,0.134 -0.769,0.016 l -4.825,-2.786 c -0.205,-0.118 -0.193,-0.317 0.027,-0.444 z m 34.694,22.394 c 0.22,-0.127 0.565,-0.134 0.77,-0.016 l 4.824,2.786 c 0.205,0.118 0.193,0.317 -0.027,0.444 l -1.485,0.857 c -0.22,0.128 -0.565,0.135 -0.77,0.016 l -4.824,-2.786 c -0.205,-0.118 -0.193,-0.316 0.027,-0.443 z m -32.259,-60.225 4.824,2.786 c 0.205,0.118 0.192,0.317 -0.027,0.444 l -5.579,3.22 c -0.22,0.128 -0.565,0.135 -0.77,0.016 l -4.824,-2.785 c -0.205,-0.118 -0.193,-0.317 0.027,-0.445 l 5.578,-3.221 c 0.221,-0.126 0.566,-0.134 0.771,-0.015 m -14.104,-8.142 4.825,2.786 c 0.205,0.117 0.194,0.316 -0.027,0.443 l -5.579,3.222 c -0.22,0.127 -0.564,0.134 -0.77,0.015 l -4.824,-2.785 c -0.205,-0.119 -0.193,-0.317 0.028,-0.445 l 5.579,-3.22 c 0.219,-0.127 0.564,-0.134 0.768,-0.016 m 7.052,4.071 4.824,2.785 c 0.205,0.119 0.194,0.318 -0.026,0.445 l -5.579,3.22 c -0.22,0.128 -0.565,0.135 -0.77,0.017 l -4.825,-2.786 c -0.204,-0.118 -0.192,-0.317 0.027,-0.444 l 5.579,-3.221 c 0.22,-0.128 0.566,-0.134 0.77,-0.016 m -28.205,-16.284 4.825,2.785 c 0.205,0.118 0.192,0.318 -0.028,0.445 l -5.578,3.22 c -0.221,0.127 -0.565,0.135 -0.77,0.016 l -4.825,-2.785 c -0.205,-0.118 -0.192,-0.318 0.027,-0.445 l 5.579,-3.221 c 0.221,-0.127 0.565,-0.134 0.77,-0.015 m 14.103,8.142 4.825,2.785 c 0.204,0.119 0.192,0.318 -0.028,0.445 l -5.579,3.221 c -0.22,0.126 -0.564,0.134 -0.769,0.015 l -4.825,-2.785 c -0.205,-0.118 -0.192,-0.318 0.027,-0.445 l 5.579,-3.22 c 0.22,-0.127 0.565,-0.135 0.77,-0.016 m -7.051,-4.072 4.824,2.786 c 0.204,0.119 0.193,0.317 -0.027,0.444 l -5.579,3.221 c -0.22,0.127 -0.565,0.134 -0.77,0.016 l -4.824,-2.785 c -0.205,-0.119 -0.193,-0.317 0.027,-0.444 l 5.579,-3.222 c 0.22,-0.126 0.565,-0.134 0.77,-0.016 M 70.396,1.867 C 70.617,1.74 70.961,1.732 71.167,1.851 l 4.824,2.786 c 0.205,0.118 0.192,0.317 -0.028,0.444 l -5.579,3.22 C 70.165,8.429 69.82,8.436 69.615,8.317 L 64.791,5.532 C 64.585,5.414 64.597,5.215 64.818,5.088 Z m -31.146,-18.443 4.825,2.785 c 0.205,0.119 0.192,0.317 -0.029,0.445 l -5.578,3.221 c -0.219,0.127 -0.564,0.134 -0.769,0.016 l -4.825,-2.786 c -0.206,-0.119 -0.193,-0.317 0.028,-0.444 l 5.578,-3.221 c 0.221,-0.127 0.564,-0.134 0.77,-0.016 m 39.534,32.027 4.825,2.786 c 0.204,0.118 0.192,0.317 -0.028,0.444 l -5.579,3.221 c -0.22,0.127 -0.565,0.134 -0.769,0.016 l -4.825,-2.786 c -0.205,-0.118 -0.193,-0.317 0.027,-0.444 l 5.579,-3.221 c 0.22,-0.127 0.565,-0.134 0.77,-0.016 m 7.2,-4.585 c 0.22,-0.127 0.564,-0.134 0.768,-0.016 l 4.826,2.785 c 0.205,0.119 0.193,0.318 -0.028,0.445 l -5.579,3.221 c -0.22,0.127 -0.564,0.134 -0.768,0.016 l -4.826,-2.786 c -0.205,-0.118 -0.192,-0.318 0.028,-0.444 z m -39.683,-23.371 14.103,8.142 c 0.205,0.118 0.192,0.318 -0.028,0.445 l -5.579,3.221 c -0.219,0.126 -0.564,0.134 -0.769,0.015 L 39.925,-8.824 c -0.205,-0.118 -0.192,-0.317 0.028,-0.445 l 5.579,-3.22 c 0.219,-0.127 0.564,-0.135 0.769,-0.016 m 15.977,27.63 4.825,2.785 c 0.205,0.118 0.192,0.318 -0.027,0.444 l -5.579,3.221 c -0.22,0.127 -0.565,0.134 -0.77,0.016 l -4.824,-2.785 c -0.205,-0.119 -0.194,-0.318 0.027,-0.445 l 5.578,-3.22 c 0.221,-0.128 0.565,-0.135 0.77,-0.016 m 31.526,-0.204 4.824,2.786 c 0.206,0.118 0.194,0.317 -0.026,0.444 l -5.579,3.221 c -0.22,0.127 -0.565,0.134 -0.77,0.016 l -4.825,-2.785 c -0.204,-0.119 -0.192,-0.318 0.029,-0.445 l 5.579,-3.221 C 93.255,14.81 93.6,14.803 93.804,14.921 M 78.354,3.701 c -0.22,0.127 -0.564,0.133 -0.77,0.015 L 72.76,0.931 C 72.555,0.812 72.568,0.614 72.788,0.486 l 5.578,-3.22 c 0.22,-0.127 0.565,-0.135 0.77,-0.016 l 4.824,2.785 c 0.206,0.119 0.193,0.317 -0.027,0.444 z M 53.118,-10.87 c -0.22,0.127 -0.565,0.135 -0.77,0.016 l -5.937,-3.428 c -0.205,-0.118 -0.194,-0.318 0.027,-0.445 l 5.579,-3.22 c 0.22,-0.128 0.565,-0.135 0.769,-0.016 l 5.938,3.428 c 0.205,0.118 0.193,0.317 -0.027,0.445 z m -74.596,-43.067 c -0.219,0.127 -0.564,0.134 -0.769,0.016 l -5.938,-3.429 c -0.205,-0.118 -0.192,-0.317 0.028,-0.444 l 5.578,-3.221 c 0.221,-0.127 0.565,-0.134 0.77,-0.016 l 5.938,3.428 c 0.204,0.119 0.193,0.317 -0.027,0.445 z m 58.267,33.64 c -0.22,0.127 -0.565,0.133 -0.77,0.015 l -5.937,-3.428 c -0.206,-0.119 -0.194,-0.317 0.027,-0.444 l 5.578,-3.221 c 0.22,-0.127 0.565,-0.134 0.771,-0.016 l 5.937,3.429 c 0.205,0.118 0.192,0.316 -0.028,0.443 z m -50.102,-28.927 c -0.22,0.128 -0.564,0.135 -0.769,0.016 l -5.939,-3.428 c -0.205,-0.118 -0.192,-0.317 0.028,-0.445 l 5.579,-3.22 c 0.22,-0.127 0.564,-0.135 0.769,-0.016 l 5.939,3.428 c 0.204,0.119 0.192,0.317 -0.028,0.445 z m 41.938,24.213 c -0.221,0.127 -0.565,0.134 -0.77,0.015 l -39.71,-22.926 c -0.205,-0.119 -0.193,-0.318 0.027,-0.444 l 5.579,-3.221 c 0.22,-0.127 0.564,-0.135 0.77,-0.016 l 39.709,22.926 c 0.205,0.119 0.193,0.318 -0.027,0.445 z m 34.142,19.712 c -0.22,0.127 -0.564,0.134 -0.769,0.016 l -7.422,-4.286 c -0.205,-0.118 -0.194,-0.317 0.026,-0.444 l 5.579,-3.22 c 0.22,-0.128 0.565,-0.135 0.77,-0.017 l 7.423,4.286 c 0.205,0.118 0.192,0.317 -0.028,0.444 z M 44.954,-15.583 c -0.22,0.126 -0.566,0.133 -0.77,0.015 l -5.938,-3.428 c -0.205,-0.118 -0.193,-0.317 0.027,-0.444 l 5.579,-3.221 c 0.22,-0.127 0.565,-0.134 0.77,-0.016 l 5.937,3.428 c 0.205,0.118 0.193,0.318 -0.027,0.444 z m 75.72,37.274 -13.549,7.823 c -0.219,0.127 -0.564,0.134 -0.769,0.016 l -4.824,-2.786 c -0.205,-0.118 -0.194,-0.317 0.027,-0.444 l 13.548,-7.822 c 0.221,-0.127 0.564,-0.134 0.769,-0.016 l 4.826,2.786 c 0.205,0.118 0.192,0.317 -0.028,0.443 m -12.631,-0.849 c -0.219,0.127 -0.564,0.134 -0.769,0.016 l -4.824,-2.786 c -0.205,-0.118 -0.193,-0.318 0.027,-0.444 l 5.579,-3.221 c 0.22,-0.127 0.565,-0.134 0.77,-0.016 l 4.824,2.785 c 0.205,0.119 0.192,0.318 -0.027,0.445 z M 71.303,-0.371 c -0.22,0.127 -0.565,0.134 -0.769,0.016 L 65.708,-3.14 c -0.205,-0.119 -0.192,-0.318 0.028,-0.445 l 5.579,-3.221 c 0.22,-0.127 0.564,-0.133 0.769,-0.016 l 4.825,2.786 c 0.205,0.119 0.193,0.317 -0.027,0.444 z m -81.412,-44.702 4.824,2.785 c 0.205,0.119 0.193,0.317 -0.027,0.444 l -5.579,3.221 c -0.22,0.127 -0.564,0.134 -0.77,0.016 l -4.824,-2.786 c -0.205,-0.118 -0.193,-0.316 0.027,-0.444 l 5.579,-3.221 c 0.22,-0.127 0.565,-0.133 0.77,-0.015 M 85.406,7.771 c -0.221,0.127 -0.565,0.135 -0.77,0.016 L 79.811,5.002 C 79.606,4.883 79.619,4.685 79.839,4.557 l 5.578,-3.221 c 0.22,-0.127 0.565,-0.134 0.77,-0.015 l 4.824,2.785 c 0.206,0.119 0.194,0.318 -0.027,0.445 z m 15.587,9 c -0.221,0.126 -0.565,0.134 -0.77,0.016 L 88.347,9.93 C 88.142,9.812 88.155,9.613 88.375,9.485 l 5.579,-3.22 C 94.173,6.138 94.518,6.13 94.723,6.249 l 11.876,6.856 c 0.204,0.119 0.193,0.317 -0.027,0.445 z m -149.437,-44.74 c 0.22,-0.127 0.565,-0.135 0.77,-0.016 l 4.824,2.785 c 0.205,0.118 0.193,0.318 -0.026,0.445 l -5.58,3.22 c -0.22,0.128 -0.565,0.135 -0.769,0.016 l -4.825,-2.785 c -0.205,-0.119 -0.193,-0.317 0.028,-0.445 z m 7.051,4.071 c 0.221,-0.127 0.565,-0.134 0.77,-0.016 l 4.825,2.785 c 0.205,0.119 0.193,0.317 -0.028,0.445 l -5.578,3.221 c -0.221,0.127 -0.565,0.134 -0.77,0.016 l -4.825,-2.786 c -0.205,-0.118 -0.192,-0.317 0.028,-0.444 z m 11.751,-34.753 c -0.22,0.127 -0.565,0.134 -0.77,0.015 l -7.422,-4.285 c -0.205,-0.118 -0.192,-0.317 0.027,-0.444 l 5.579,-3.221 c 0.221,-0.127 0.565,-0.134 0.77,-0.016 l 7.422,4.286 c 0.205,0.118 0.193,0.317 -0.027,0.444 z m -1.631,40.595 c 0.22,-0.127 0.565,-0.134 0.77,-0.015 l 4.824,2.785 c 0.205,0.118 0.193,0.317 -0.028,0.444 l -5.578,3.221 c -0.22,0.127 -0.565,0.134 -0.77,0.016 l -4.824,-2.786 c -0.205,-0.118 -0.193,-0.317 0.027,-0.444 z m 14.103,8.142 c 0.22,-0.127 0.564,-0.134 0.769,-0.015 l 4.825,2.785 c 0.205,0.118 0.192,0.317 -0.028,0.444 l -5.578,3.221 c -0.22,0.127 -0.565,0.134 -0.77,0.016 l -4.824,-2.786 c -0.205,-0.118 -0.193,-0.317 0.026,-0.444 z M -55.495,-32.04 c 0.22,-0.127 0.565,-0.135 0.769,-0.016 l 4.825,2.785 c 0.205,0.119 0.193,0.318 -0.027,0.445 l -5.579,3.221 c -0.22,0.126 -0.564,0.134 -0.769,0.015 l -4.825,-2.785 c -0.205,-0.119 -0.193,-0.317 0.027,-0.445 z m 31.273,18.055 c 0.221,-0.127 0.565,-0.134 0.77,-0.015 l 4.825,2.785 c 0.205,0.118 0.192,0.317 -0.028,0.444 l -5.579,3.221 c -0.22,0.127 -0.564,0.134 -0.769,0.016 l -4.825,-2.785 c -0.205,-0.119 -0.193,-0.318 0.027,-0.445 z m 14.103,8.142 c 0.22,-0.127 0.564,-0.134 0.769,-0.016 l 4.825,2.786 c 0.205,0.118 0.193,0.317 -0.027,0.444 l -5.579,3.221 c -0.22,0.127 -0.565,0.134 -0.77,0.016 l -4.824,-2.785 c -0.205,-0.119 -0.193,-0.318 0.027,-0.445 z m -23.398,-52.285 -5.579,3.221 c -0.22,0.127 -0.565,0.135 -0.769,0.016 l -5.939,-3.428 c -0.205,-0.119 -0.192,-0.318 0.028,-0.445 l 5.579,-3.221 c 0.219,-0.127 0.564,-0.134 0.769,-0.015 l 5.938,3.428 c 0.205,0.118 0.193,0.317 -0.027,0.444 m -4.63,6.53 -5.579,3.221 c -0.22,0.127 -0.564,0.134 -0.769,0.015 l -9.278,-5.356 c -0.205,-0.119 -0.193,-0.318 0.027,-0.445 l 5.579,-3.22 c 0.22,-0.128 0.564,-0.135 0.77,-0.016 l 9.277,5.356 c 0.205,0.119 0.193,0.317 -0.027,0.445 m -24.399,15.487 c 0.22,-0.128 0.565,-0.135 0.769,-0.016 l 4.825,2.786 c 0.205,0.118 0.193,0.317 -0.027,0.444 l -5.579,3.22 c -0.22,0.128 -0.565,0.135 -0.77,0.016 l -4.824,-2.785 c -0.205,-0.118 -0.193,-0.317 0.027,-0.444 z m -4.553,-2.629 -5.578,3.221 c -0.22,0.127 -0.565,0.135 -0.77,0.016 l -5.938,-3.428 c -0.205,-0.118 -0.193,-0.318 0.028,-0.444 l 5.578,-3.222 c 0.22,-0.127 0.565,-0.133 0.77,-0.015 l 5.938,3.428 c 0.205,0.118 0.193,0.317 -0.028,0.444 m 19.127,-9.328 -5.579,3.22 c -0.22,0.127 -0.564,0.135 -0.769,0.016 l -7.423,-4.285 c -0.205,-0.118 -0.193,-0.318 0.028,-0.445 l 5.578,-3.22 c 0.22,-0.127 0.565,-0.135 0.77,-0.016 l 7.422,4.285 c 0.205,0.119 0.193,0.318 -0.027,0.445 m -10.567,3.101 -5.579,3.221 c -0.22,0.127 -0.565,0.134 -0.77,0.016 l -4.824,-2.786 c -0.205,-0.118 -0.193,-0.317 0.027,-0.444 l 5.579,-3.221 c 0.22,-0.127 0.564,-0.134 0.769,-0.016 l 4.825,2.785 c 0.205,0.119 0.192,0.318 -0.027,0.445 m 41.378,-4.178 4.825,2.786 c 0.205,0.118 0.192,0.317 -0.027,0.444 l -5.579,3.221 c -0.22,0.127 -0.565,0.134 -0.77,0.016 l -4.824,-2.785 c -0.205,-0.119 -0.193,-0.318 0.027,-0.445 l 5.579,-3.221 c 0.22,-0.126 0.564,-0.134 0.769,-0.016 m 5.148,28.74 -4.824,-2.785 c -0.205,-0.119 -0.193,-0.318 0.027,-0.445 l 5.579,-3.221 c 0.22,-0.127 0.564,-0.134 0.77,-0.016 l 4.824,2.786 c 0.205,0.118 0.193,0.317 -0.027,0.444 l -5.579,3.221 c -0.22,0.127 -0.565,0.134 -0.77,0.016 m -7.05,-4.071 -4.825,-2.786 c -0.205,-0.118 -0.194,-0.317 0.027,-0.444 l 5.579,-3.221 c 0.22,-0.127 0.564,-0.135 0.769,-0.016 l 4.825,2.786 c 0.205,0.118 0.193,0.317 -0.027,0.444 l -5.579,3.22 c -0.22,0.128 -0.565,0.135 -0.769,0.017 M 9.141,-8.192 4.317,-10.977 c -0.205,-0.119 -0.193,-0.317 0.027,-0.445 l 5.578,-3.221 c 0.221,-0.127 0.565,-0.134 0.77,-0.016 l 4.825,2.786 c 0.205,0.119 0.192,0.317 -0.027,0.444 l -5.579,3.221 c -0.22,0.127 -0.565,0.134 -0.77,0.016 m -14.102,-8.142 -4.825,-2.786 c -0.205,-0.118 -0.193,-0.317 0.028,-0.444 l 5.578,-3.221 c 0.22,-0.127 0.565,-0.134 0.769,-0.015 l 4.825,2.784 c 0.205,0.119 0.193,0.318 -0.027,0.445 l -5.579,3.221 c -0.22,0.127 -0.564,0.134 -0.769,0.016 m 7.051,4.071 -4.825,-2.785 c -0.205,-0.119 -0.192,-0.318 0.028,-0.445 l 5.579,-3.221 c 0.22,-0.127 0.564,-0.134 0.769,-0.015 l 4.824,2.785 c 0.205,0.118 0.193,0.318 -0.027,0.444 l -5.579,3.221 c -0.22,0.127 -0.564,0.134 -0.769,0.016 m -28.205,-16.284 -4.824,-2.786 c -0.206,-0.118 -0.194,-0.317 0.026,-0.444 l 5.58,-3.221 c 0.22,-0.127 0.564,-0.134 0.769,-0.016 l 4.825,2.786 c 0.204,0.118 0.192,0.317 -0.028,0.444 l -5.579,3.221 c -0.22,0.127 -0.565,0.134 -0.769,0.016 m -7.052,-4.072 -4.824,-2.785 c -0.205,-0.118 -0.193,-0.317 0.027,-0.445 l 5.579,-3.22 c 0.22,-0.127 0.565,-0.134 0.77,-0.016 l 4.824,2.786 c 0.206,0.118 0.193,0.317 -0.027,0.444 l -5.579,3.221 c -0.22,0.127 -0.564,0.134 -0.77,0.015 m 25.48,-1.854 4.824,2.786 c 0.205,0.118 0.193,0.317 -0.027,0.444 l -5.579,3.221 c -0.22,0.127 -0.565,0.134 -0.77,0.016 l -4.824,-2.786 c -0.206,-0.118 -0.193,-0.317 0.027,-0.444 l 5.578,-3.221 c 0.221,-0.127 0.565,-0.134 0.771,-0.016 m -7.052,-4.071 4.824,2.785 c 0.206,0.119 0.194,0.318 -0.026,0.445 l -5.58,3.221 c -0.219,0.127 -0.564,0.134 -0.769,0.016 l -4.825,-2.786 c -0.204,-0.118 -0.193,-0.317 0.028,-0.444 l 5.579,-3.221 c 0.219,-0.127 0.565,-0.134 0.769,-0.016 m -7.052,-4.071 4.825,2.786 c 0.205,0.118 0.194,0.317 -0.027,0.444 l -5.579,3.22 c -0.22,0.128 -0.565,0.135 -0.77,0.017 l -4.824,-2.786 c -0.205,-0.118 -0.193,-0.317 0.027,-0.444 l 5.579,-3.221 c 0.22,-0.127 0.565,-0.134 0.769,-0.016 m -18.427,5.926 -4.824,-2.786 c -0.205,-0.118 -0.193,-0.317 0.027,-0.444 l 5.578,-3.221 c 0.221,-0.127 0.565,-0.134 0.77,-0.016 l 4.825,2.785 c 0.205,0.119 0.193,0.318 -0.028,0.445 l -5.578,3.221 c -0.22,0.127 -0.565,0.134 -0.77,0.016 m 10.607,-9.981 c 0.22,-0.127 0.565,-0.134 0.77,-0.016 l 4.824,2.786 c 0.205,0.118 0.193,0.317 -0.027,0.444 l -5.579,3.221 c -0.22,0.127 -0.564,0.134 -0.77,0.016 l -4.824,-2.786 c -0.205,-0.118 -0.193,-0.317 0.027,-0.444 z m 52.855,46.62 -4.825,-2.785 c -0.205,-0.119 -0.192,-0.318 0.028,-0.445 l 5.579,-3.221 c 0.22,-0.127 0.564,-0.134 0.769,-0.016 l 4.825,2.786 c 0.205,0.118 0.192,0.317 -0.028,0.444 l -5.579,3.221 c -0.22,0.128 -0.564,0.134 -0.769,0.016 m 61.822,19.589 c 0.219,-0.128 0.564,-0.135 0.769,-0.017 l 4.825,2.786 c 0.205,0.118 0.192,0.317 -0.028,0.444 l -5.579,3.221 c -0.22,0.128 -0.564,0.134 -0.769,0.016 l -4.825,-2.786 c -0.205,-0.118 -0.193,-0.317 0.028,-0.444 z M 16.193,-4.121 11.368,-6.907 c -0.205,-0.118 -0.193,-0.317 0.028,-0.444 l 5.578,-3.22 c 0.22,-0.128 0.565,-0.135 0.77,-0.016 l 4.825,2.785 c 0.205,0.118 0.192,0.317 -0.028,0.445 l -5.579,3.22 c -0.22,0.128 -0.564,0.135 -0.769,0.016 m 53.07,30.64 -4.825,-2.785 c -0.205,-0.118 -0.192,-0.317 0.027,-0.445 l 5.579,-3.22 c 0.221,-0.128 0.565,-0.135 0.77,-0.016 l 4.825,2.785 c 0.204,0.119 0.193,0.318 -0.028,0.445 l -5.578,3.22 c -0.221,0.127 -0.566,0.135 -0.77,0.016 M 85.62,35.502 99.167,27.68 c 0.221,-0.127 0.565,-0.134 0.77,-0.015 l 4.825,2.785 c 0.205,0.118 0.193,0.317 -0.027,0.445 l -13.549,7.822 c -0.22,0.127 -0.564,0.134 -0.769,0.015 L 85.592,35.947 C 85.387,35.829 85.4,35.629 85.62,35.502 m -1.485,-0.856 c -0.219,0.127 -0.565,0.134 -0.769,0.016 l -4.825,-2.787 c -0.205,-0.118 -0.193,-0.316 0.027,-0.443 l 5.579,-3.221 c 0.22,-0.128 0.564,-0.134 0.77,-0.016 l 4.824,2.785 c 0.205,0.119 0.193,0.317 -0.027,0.445 z M 77.866,24.124 82.69,26.91 c 0.205,0.117 0.192,0.316 -0.027,0.444 l -5.58,3.22 c -0.219,0.128 -0.564,0.134 -0.769,0.016 L 71.49,27.805 c -0.205,-0.119 -0.194,-0.317 0.027,-0.445 l 5.579,-3.22 c 0.22,-0.128 0.565,-0.135 0.77,-0.016 m 15.02,-0.53 4.824,2.785 c 0.206,0.118 0.193,0.318 -0.027,0.445 l -5.578,3.22 c -0.221,0.127 -0.565,0.134 -0.771,0.016 L 86.51,27.275 c -0.204,-0.118 -0.192,-0.318 0.028,-0.445 l 5.579,-3.221 c 0.219,-0.127 0.564,-0.134 0.769,-0.015 m -86.471,-49.925 4.825,2.786 c 0.205,0.118 0.192,0.317 -0.028,0.444 l -5.579,3.221 c -0.22,0.127 -0.564,0.134 -0.769,0.016 L 0.039,-22.65 c -0.205,-0.118 -0.192,-0.317 0.028,-0.444 l 5.579,-3.22 c 0.22,-0.128 0.564,-0.135 0.769,-0.017 m 69.751,65.578 c -0.22,0.127 -0.565,0.134 -0.771,0.016 l -4.823,-2.786 c -0.205,-0.118 -0.194,-0.317 0.027,-0.444 l 5.578,-3.221 c 0.22,-0.127 0.565,-0.134 0.77,-0.016 l 4.824,2.786 c 0.205,0.118 0.193,0.316 -0.026,0.444 z M 31.846,-2.445 36.671,0.34 c 0.205,0.118 0.193,0.317 -0.028,0.445 l -5.578,3.22 C 30.845,4.133 30.5,4.14 30.295,4.021 L 25.47,1.236 C 25.265,1.118 25.278,0.918 25.498,0.792 l 5.579,-3.222 c 0.22,-0.127 0.564,-0.133 0.769,-0.015 M 68.344,35.191 63.52,32.406 c -0.205,-0.118 -0.192,-0.317 0.027,-0.445 l 5.579,-3.22 c 0.22,-0.127 0.565,-0.135 0.769,-0.016 l 4.825,2.785 c 0.205,0.119 0.194,0.318 -0.027,0.445 l -5.578,3.221 c -0.221,0.127 -0.565,0.134 -0.771,0.015 M 52.757,26.192 47.933,23.407 C 47.728,23.289 47.741,23.09 47.96,22.962 l 5.579,-3.22 c 0.22,-0.127 0.564,-0.135 0.769,-0.016 l 4.825,2.785 c 0.205,0.119 0.193,0.318 -0.027,0.445 l -5.579,3.221 c -0.22,0.127 -0.565,0.134 -0.77,0.015 m 8.536,4.929 -4.824,-2.786 c -0.205,-0.118 -0.193,-0.317 0.027,-0.444 l 5.579,-3.221 c 0.22,-0.128 0.564,-0.134 0.769,-0.016 l 4.825,2.785 c 0.206,0.119 0.193,0.317 -0.027,0.445 l -5.579,3.221 c -0.22,0.127 -0.564,0.134 -0.77,0.016 m -61.929,-61.523 4.824,2.786 c 0.205,0.118 0.193,0.317 -0.027,0.444 l -5.579,3.221 c -0.22,0.127 -0.564,0.134 -0.77,0.015 l -4.824,-2.784 c -0.205,-0.119 -0.193,-0.318 0.028,-0.445 l 5.578,-3.221 c 0.22,-0.127 0.565,-0.134 0.77,-0.016 m -36.047,4.956 -4.824,-2.785 c -0.205,-0.119 -0.193,-0.318 0.027,-0.445 l 5.579,-3.221 c 0.22,-0.127 0.565,-0.134 0.77,-0.016 l 4.824,2.786 c 0.205,0.118 0.193,0.317 -0.027,0.445 l -5.579,3.22 c -0.22,0.127 -0.565,0.134 -0.77,0.016 m 7.052,4.071 -4.825,-2.786 c -0.205,-0.118 -0.193,-0.317 0.027,-0.443 l 5.579,-3.222 c 0.22,-0.127 0.565,-0.133 0.77,-0.015 l 4.825,2.785 c 0.204,0.119 0.192,0.317 -0.028,0.445 l -5.578,3.22 c -0.221,0.127 -0.566,0.134 -0.77,0.016 m 7.051,4.071 -4.824,-2.785 c -0.205,-0.119 -0.194,-0.318 0.027,-0.445 l 5.579,-3.22 c 0.219,-0.127 0.564,-0.135 0.769,-0.016 l 4.824,2.785 c 0.205,0.118 0.194,0.318 -0.027,0.444 l -5.579,3.221 c -0.219,0.127 -0.564,0.135 -0.769,0.016 m 14.102,8.142 -4.824,-2.785 c -0.205,-0.118 -0.193,-0.318 0.028,-0.444 l 5.578,-3.221 c 0.22,-0.127 0.564,-0.135 0.77,-0.016 l 4.824,2.785 c 0.205,0.119 0.193,0.318 -0.027,0.445 l -5.579,3.221 c -0.22,0.127 -0.564,0.134 -0.77,0.015 m -35.256,-20.355 -4.825,-2.786 c -0.205,-0.117 -0.192,-0.317 0.028,-0.444 l 5.578,-3.221 c 0.221,-0.127 0.565,-0.134 0.77,-0.015 l 4.825,2.785 c 0.205,0.118 0.192,0.317 -0.028,0.444 l -5.578,3.221 c -0.22,0.127 -0.565,0.135 -0.77,0.016 m 28.205,16.284 -4.825,-2.785 c -0.204,-0.119 -0.192,-0.317 0.028,-0.444 l 5.578,-3.222 c 0.221,-0.127 0.565,-0.134 0.77,-0.015 l 4.825,2.785 c 0.205,0.119 0.193,0.317 -0.027,0.444 l -5.579,3.221 c -0.22,0.128 -0.565,0.134 -0.77,0.016 m -35.256,-20.355 -4.825,-2.786 c -0.205,-0.118 -0.192,-0.317 0.028,-0.444 l 5.578,-3.221 c 0.22,-0.127 0.565,-0.134 0.77,-0.016 l 4.824,2.786 c 0.205,0.118 0.193,0.317 -0.027,0.444 l -5.579,3.221 c -0.22,0.127 -0.564,0.134 -0.769,0.016 m 18.752,-23.683 c 0.22,-0.127 0.565,-0.134 0.77,-0.016 l 4.825,2.786 c 0.204,0.118 0.192,0.317 -0.028,0.444 l -5.579,3.221 c -0.22,0.127 -0.564,0.134 -0.769,0.016 l -4.825,-2.786 c -0.205,-0.118 -0.193,-0.317 0.028,-0.444 z m 7.821,4.055 4.824,2.786 c 0.205,0.118 0.193,0.317 -0.027,0.444 l -5.578,3.221 c -0.22,0.127 -0.565,0.134 -0.77,0.015 l -4.825,-2.785 c -0.204,-0.118 -0.192,-0.317 0.028,-0.444 l 5.579,-3.221 c 0.22,-0.127 0.564,-0.134 0.769,-0.016 m -22.276,6.005 c 0.22,-0.127 0.565,-0.135 0.77,-0.017 l 4.825,2.787 c 0.205,0.118 0.192,0.317 -0.028,0.443 l -5.579,3.222 c -0.22,0.127 -0.564,0.133 -0.769,0.015 l -4.825,-2.785 c -0.205,-0.119 -0.193,-0.317 0.028,-0.444 z m -11.348,9.552 -4.825,-2.786 c -0.205,-0.118 -0.193,-0.317 0.027,-0.444 l 5.579,-3.22 c 0.22,-0.128 0.565,-0.135 0.769,-0.016 l 4.825,2.785 c 0.205,0.118 0.193,0.317 -0.027,0.444 l -5.579,3.221 c -0.22,0.127 -0.564,0.134 -0.769,0.016 m 21.174,-13.082 c 0.22,-0.128 0.564,-0.134 0.769,-0.016 l 4.825,2.785 c 0.205,0.118 0.193,0.318 -0.028,0.445 l -5.578,3.221 c -0.22,0.127 -0.565,0.134 -0.77,0.015 l -4.824,-2.785 c -0.206,-0.118 -0.193,-0.317 0.027,-0.445 z m 35.236,45.65 -4.825,-2.785 c -0.205,-0.119 -0.192,-0.317 0.028,-0.444 l 5.578,-3.222 c 0.22,-0.126 0.565,-0.133 0.77,-0.015 l 4.825,2.786 c 0.205,0.118 0.192,0.317 -0.028,0.443 l -5.579,3.222 c -0.219,0.127 -0.564,0.133 -0.769,0.015 M 5.625,-1.02 0.8,-3.805 C 0.596,-3.923 0.608,-4.123 0.828,-4.249 L 6.407,-7.47 c 0.22,-0.128 0.564,-0.134 0.769,-0.016 l 4.825,2.785 c 0.205,0.119 0.192,0.318 -0.028,0.445 l -5.578,3.221 c -0.22,0.127 -0.565,0.134 -0.77,0.015 m 36.046,-4.955 10.763,6.213 c 0.205,0.119 0.192,0.318 -0.027,0.445 L 38.859,8.505 C 38.638,8.632 38.293,8.639 38.088,8.521 L 32.522,5.307 C 32.317,5.188 32.33,4.99 32.549,4.862 l 7.173,-4.141 c 0.22,-0.127 0.233,-0.326 0.028,-0.444 l -4.454,-2.571 c -0.205,-0.119 -0.193,-0.318 0.028,-0.444 l 5.578,-3.221 c 0.22,-0.127 0.565,-0.134 0.769,-0.016 M 48.176,6.982 53,9.768 c 0.205,0.118 0.193,0.317 -0.027,0.444 l -5.579,3.221 c -0.22,0.127 -0.564,0.134 -0.769,0.016 L 41.8,10.664 c -0.205,-0.119 -0.193,-0.318 0.028,-0.445 l 5.578,-3.221 c 0.22,-0.127 0.564,-0.134 0.77,-0.016 m -34.71,-29.241 4.826,2.785 c 0.205,0.118 0.192,0.317 -0.029,0.444 l -5.578,3.221 c -0.22,0.127 -0.564,0.135 -0.769,0.016 l -4.825,-2.786 c -0.205,-0.118 -0.193,-0.317 0.027,-0.444 l 5.579,-3.221 c 0.22,-0.127 0.564,-0.134 0.769,-0.015 m 7.052,4.071 4.824,2.785 c 0.205,0.118 0.193,0.317 -0.027,0.444 l -5.579,3.221 c -0.22,0.128 -0.565,0.134 -0.77,0.016 l -4.824,-2.785 c -0.205,-0.119 -0.193,-0.318 0.027,-0.445 l 5.58,-3.221 c 0.219,-0.127 0.564,-0.134 0.769,-0.015 m 7.051,4.071 4.825,2.785 c 0.205,0.119 0.192,0.317 -0.028,0.445 l -5.578,3.22 c -0.22,0.127 -0.565,0.134 -0.77,0.016 l -4.824,-2.786 C 20.989,-10.555 21,-10.754 21.22,-10.88 l 5.579,-3.222 c 0.221,-0.127 0.565,-0.134 0.77,-0.015 m 7.052,4.071 4.824,2.785 c 0.205,0.118 0.193,0.318 -0.028,0.445 l -5.578,3.22 c -0.22,0.127 -0.565,0.134 -0.77,0.016 L 28.245,-6.365 C 28.04,-6.484 28.051,-6.683 28.272,-6.81 l 5.579,-3.221 c 0.22,-0.127 0.565,-0.134 0.77,-0.015 M 12.676,3.051 7.852,0.266 C 7.647,0.148 7.659,-0.051 7.879,-0.178 l 5.579,-3.221 c 0.22,-0.127 0.564,-0.134 0.77,-0.016 l 4.824,2.786 c 0.205,0.118 0.193,0.317 -0.027,0.444 l -5.579,3.221 c -0.22,0.127 -0.565,0.134 -0.77,0.015 M 19.728,7.123 14.903,4.337 C 14.698,4.219 14.71,4.02 14.93,3.893 l 5.579,-3.221 c 0.22,-0.127 0.565,-0.134 0.77,-0.016 l 4.825,2.786 c 0.204,0.118 0.192,0.317 -0.028,0.444 l -5.578,3.22 c -0.221,0.128 -0.566,0.135 -0.77,0.017 M 38.655,18.05 33.83,15.265 c -0.205,-0.119 -0.193,-0.318 0.028,-0.444 L 39.437,11.6 c 0.22,-0.127 0.564,-0.135 0.769,-0.017 l 4.825,2.786 c 0.205,0.119 0.192,0.318 -0.028,0.444 l -5.579,3.221 c -0.219,0.128 -0.564,0.134 -0.769,0.016 M 30.12,13.122 21.955,8.408 C 21.75,8.29 21.762,8.091 21.982,7.964 l 5.579,-3.221 c 0.22,-0.127 0.564,-0.134 0.77,-0.015 l 8.164,4.713 c 0.205,0.118 0.193,0.317 -0.028,0.444 l -5.578,3.221 c -0.221,0.127 -0.565,0.134 -0.769,0.016 m 15.586,8.999 -4.825,-2.785 c -0.204,-0.119 -0.192,-0.317 0.028,-0.444 l 5.579,-3.222 c 0.22,-0.127 0.564,-0.133 0.769,-0.016 l 4.825,2.786 c 0.205,0.119 0.193,0.318 -0.027,0.444 l -5.579,3.221 c -0.221,0.127 -0.565,0.134 -0.77,0.016 m 9.521,-11.068 4.824,2.786 c 0.205,0.118 0.193,0.317 -0.027,0.444 l -5.578,3.221 c -0.221,0.127 -0.566,0.134 -0.771,0.016 l -4.824,-2.786 c -0.205,-0.118 -0.192,-0.317 0.027,-0.444 l 5.58,-3.221 c 0.219,-0.127 0.564,-0.133 0.769,-0.016"
             style="fill:#455a64;fill-opacity:1;fill-rule:nonzero;stroke:none"
             id="path146"
             inkscape:connector-curvature="0" /></g><g
           id="g148"
           transform="translate(264.3672,146.1025)"><path
             d="M 0,0 52.807,30.488 85.304,11.726 32.497,-18.762 Z"
             style="fill:#263238;fill-opacity:1;fill-rule:nonzero;stroke:none"
             id="path150"
             inkscape:connector-curvature="0" /></g></g></g><g
       id="g152"><g
         id="g154"
         clip-path="url(#clipPath158)"><g
           id="g160"
           transform="translate(147.0352,299.7437)"><path
             d="m 0,0 157.351,90.845 c 3.077,1.777 5.594,0.323 5.594,-3.23 V -34.258 c 0,-1.65 -1.169,-3.675 -2.597,-4.5 l -161.35,-93.153 c -1.429,-0.824 -2.598,-0.15 -2.598,1.5 V -6.235 c 0,2.286 1.62,5.092 3.6,6.235"
             style="fill:#f5f5f5;fill-opacity:1;fill-rule:nonzero;stroke:none"
             id="path162"
             inkscape:connector-curvature="0" /></g><g
           id="g164"
           transform="translate(309.9805,384.4399)"><path
             d="m 0,0 v 2.919 c 0,3.553 -2.518,5.007 -5.595,3.23 l -157.35,-90.845 c -1.98,-1.143 -3.6,-3.949 -3.6,-6.236 v -5.223 z"
             style="fill:#27debf;fill-opacity:1;fill-rule:nonzero;stroke:none"
             id="path166"
             inkscape:connector-curvature="0" /></g><g
           id="g168"
           transform="translate(286.5166,377.7866)"><path
             d="m 0,0 c -1.063,-0.615 -1.927,-2.109 -1.927,-3.337 0,-1.229 0.864,-1.728 1.927,-1.113 1.064,0.615 1.928,2.108 1.928,3.337 C 1.928,0.116 1.064,0.614 0,0"
             style="fill:#ffffff;fill-opacity:1;fill-rule:nonzero;stroke:none"
             id="path170"
             inkscape:connector-curvature="0" /></g><g
           id="g172"
           transform="translate(294.1641,382.2012)"><path
             d="m 0,0 c -1.064,-0.614 -1.928,-2.109 -1.928,-3.337 0,-1.229 0.864,-1.727 1.928,-1.113 1.063,0.615 1.927,2.108 1.927,3.337 C 1.927,0.116 1.063,0.614 0,0"
             style="fill:#ffffff;fill-opacity:1;fill-rule:nonzero;stroke:none"
             id="path174"
             inkscape:connector-curvature="0" /></g><g
           id="g176"
           transform="translate(301.8105,386.6157)"><path
             d="m 0,0 c -1.064,-0.615 -1.927,-2.109 -1.927,-3.337 0,-1.229 0.863,-1.727 1.927,-1.113 1.064,0.615 1.927,2.109 1.927,3.338 C 1.927,0.116 1.064,0.614 0,0"
             style="fill:#ffffff;fill-opacity:1;fill-rule:nonzero;stroke:none"
             id="path178"
             inkscape:connector-curvature="0" /></g></g></g><g
       id="g180"
       transform="translate(167.2671,202.6411)"><path
         d="M 0,0 -6.122,3.535 8.874,29.509 14.996,25.974 Z"
         style="fill:#37474f;fill-opacity:1;fill-rule:nonzero;stroke:none"
         id="path182"
         inkscape:connector-curvature="0" /></g><g
       id="g184"
       transform="translate(167.2671,202.6411)"><path
         d="m 0,0 -3.061,1.767 14.996,25.975 3.061,-1.768 z"
         style="fill:#263238;fill-opacity:1;fill-rule:nonzero;stroke:none"
         id="path186"
         inkscape:connector-curvature="0" /></g><g
       id="g188"><g
         id="g190"
         clip-path="url(#clipPath194)"><g
           id="g196"
           transform="translate(144.7041,155.4556)"><path
             d="m 0,0 c -2.792,-4.843 -15.985,2.854 -13.227,7.637 l 34.452,53.728 c 0.193,0.301 0.589,0.397 0.9,0.218 l 6.918,-3.994 c 0.31,-0.179 0.425,-0.57 0.261,-0.889 z"
             style="fill:#27debf;fill-opacity:1;fill-rule:nonzero;stroke:none"
             id="path198"
             inkscape:connector-curvature="0" /></g><g
           id="g200"><g
             id="g202" /><g
             id="g214"><g
               clip-path="url(#clipPath206)"
               id="g212"
               style="opacity:0.10000598"><g
                 transform="translate(144.7041,155.4556)"
                 id="g210"><path
                   d="m 0,0 29.304,56.7 c 0.164,0.319 0.05,0.71 -0.261,0.889 L 25.893,59.408 -7.72,-0.307 C -4.643,-1.812 -1.261,-2.188 0,0"
                   style="fill:#000000;fill-opacity:1;fill-rule:nonzero;stroke:none"
                   id="path208"
                   inkscape:connector-curvature="0" /></g></g></g></g><g
           id="g216"
           transform="translate(222.8364,297.5244)"><path
             d="m 0,0 c 0.91,-3.1 1.09,-6.3 1.09,-8.4 0,-19.42 -14.21,-44.03 -31.03,-53.74 -2.73,-1.57 -5.39,-2.68 -7.87,-3.27 -0.9,3.1 -1.09,6.3 -1.09,8.41 0,19.42 14.21,44.03 31.03,53.74 2.73,1.57 5.39,2.67 7.87,3.26 m 23.13,-15.57 c -0.01,0.41 -0.03,0.81 -0.06,1.21 -0.02,0.4 -0.05,0.79 -0.09,1.18 -0.02,0.26 -0.05,0.52 -0.08,0.78 -0.07,0.68 -0.17,1.35 -0.28,1.99 -0.05,0.29 -0.1,0.59 -0.16,0.88 -0.05,0.28 -0.11,0.55 -0.17,0.82 -0.17,0.74 -0.35,1.46 -0.56,2.15 -0.11,0.33 -0.21,0.66 -0.32,0.98 -0.02,0.05 -0.04,0.1 -0.05,0.15 -0.12,0.32 -0.23,0.63 -0.35,0.93 -0.14,0.35 -0.28,0.7 -0.44,1.03 -0.11,0.25 -0.22,0.49 -0.35,0.73 -0.07,0.18 -0.16,0.35 -0.26,0.52 -0.1,0.21 -0.21,0.42 -0.33,0.62 -0.03,0.05 -0.05,0.1 -0.08,0.14 -0.1,0.18 -0.21,0.36 -0.32,0.54 -0.07,0.12 -0.15,0.23 -0.22,0.34 -0.53,0.83 -1.1,1.59 -1.72,2.29 -0.11,0.12 -0.22,0.24 -0.32,0.36 -0.09,0.1 -0.18,0.19 -0.27,0.28 -0.11,0.12 -0.23,0.23 -0.35,0.35 -0.34,0.34 -0.68,0.65 -1.04,0.93 -0.17,0.15 -0.35,0.29 -0.53,0.42 -0.18,0.14 -0.36,0.27 -0.55,0.4 -0.29,0.21 -0.59,0.41 -0.89,0.58 -0.08,0.05 -0.16,0.1 -0.24,0.15 L 13.05,5.22 H 13.04 L -1.13,13.4 h -0.02 l -0.08,0.05 c -2.6,1.48 -5.6,2.25 -8.9,2.25 -4.64,0 -9.88,-1.52 -15.43,-4.72 -19.06,-11.01 -34.52,-37.78 -34.52,-59.8 0,-10.98 3.84,-18.7 10.05,-22.32 l 0.06,-0.03 v -0.01 l 14.18,-8.17 c 0,-0.01 0,-0.01 0.01,-0.01 l 0.06,-0.04 v 0.01 c 0.06,-0.03 0.11,-0.06 0.17,-0.09 0.27,-0.16 0.54,-0.3 0.82,-0.43 0.34,-0.17 0.69,-0.32 1.04,-0.46 0.31,-0.13 0.63,-0.25 0.95,-0.35 0.17,-0.06 0.34,-0.11 0.51,-0.15 0.18,-0.07 0.36,-0.12 0.55,-0.16 0.19,-0.06 0.37,-0.1 0.56,-0.14 0.14,-0.04 0.27,-0.07 0.41,-0.09 0.24,-0.05 0.5,-0.1 0.75,-0.13 0.06,-0.02 0.11,-0.03 0.17,-0.03 0.3,-0.05 0.6,-0.09 0.9,-0.12 5.14,-0.54 11.12,0.91 17.52,4.6 19.07,11.01 34.53,37.79 34.53,59.8 0,0.53 -0.01,1.05 -0.03,1.57"
             style="fill:#27debf;fill-opacity:1;fill-rule:nonzero;stroke:none"
             id="path218"
             inkscape:connector-curvature="0" /></g><g
           id="g220"><g
             id="g222" /><g
             id="g234"><g
               clip-path="url(#clipPath226)"
               id="g232"
               style="opacity:0.10000598"><g
                 transform="translate(186.5669,218.4463)"
                 id="g230"><path
                   d="m 0,0 -13.763,7.943 c -6.21,3.63 -10.049,11.35 -10.049,22.31 0,9.82 3.08,20.58 8.169,30.46 l 14.179,-8.176 c -5.1,-9.88 -8.17,-20.641 -8.17,-30.46 C -9.634,11.336 -5.98,3.72 0,0"
                   style="fill:#000000;fill-opacity:1;fill-rule:nonzero;stroke:none"
                   id="path228"
                   inkscape:connector-curvature="0" /></g></g></g></g><g
           id="g236"><g
             id="g238" /><g
             id="g250"><g
               clip-path="url(#clipPath242)"
               id="g248"
               style="opacity:0.39999402"><g
                 transform="translate(207.9663,226.6445)"
                 id="g246"><path
                   d="m 0,0 c -4.28,-2.47 -8.4,-3.77 -11.92,-3.77 -6.61,0 -9.65,4.51 -11.02,9.24 -0.9,3.1 -1.09,6.3 -1.09,8.41 0,19.42 14.21,44.03 31.03,53.74 2.73,1.57 5.39,2.67 7.87,3.26 1.42,0.34 2.77,0.51 4.05,0.51 10.93,0 12.1,-12.34 12.1,-17.65 C 31.02,34.32 16.82,9.71 0,0 m 38,55.31 c -0.01,0.41 -0.03,0.81 -0.06,1.21 -0.02,0.4 -0.05,0.79 -0.09,1.18 -0.02,0.26 -0.05,0.52 -0.08,0.78 -0.07,0.68 -0.17,1.35 -0.28,1.99 -0.05,0.29 -0.1,0.59 -0.16,0.88 -0.05,0.28 -0.11,0.55 -0.17,0.82 -0.17,0.74 -0.35,1.46 -0.56,2.15 -0.11,0.33 -0.21,0.66 -0.32,0.98 -0.02,0.05 -0.04,0.1 -0.05,0.15 -0.12,0.32 -0.23,0.63 -0.35,0.93 -0.14,0.35 -0.28,0.7 -0.44,1.03 -0.11,0.25 -0.22,0.49 -0.35,0.73 -0.07,0.18 -0.16,0.35 -0.26,0.52 -0.1,0.21 -0.21,0.42 -0.33,0.62 -0.03,0.05 -0.05,0.1 -0.08,0.14 -0.1,0.18 -0.21,0.36 -0.32,0.54 -0.07,0.12 -0.15,0.23 -0.22,0.34 -0.53,0.83 -1.1,1.59 -1.72,2.29 -0.11,0.12 -0.22,0.24 -0.32,0.36 -0.09,0.1 -0.18,0.19 -0.27,0.28 -0.11,0.12 -0.23,0.23 -0.35,0.35 -0.34,0.34 -0.68,0.65 -1.04,0.93 -0.17,0.15 -0.35,0.29 -0.53,0.42 -0.18,0.14 -0.36,0.27 -0.55,0.4 -0.29,0.21 -0.59,0.41 -0.89,0.58 C 21.94,79.72 13.18,79.27 3.5,73.68 -15.57,62.67 -31.03,35.9 -31.03,13.88 c 0,-11.15 3.96,-18.94 10.35,-22.48 0.27,-0.16 0.54,-0.3 0.82,-0.43 0.34,-0.17 0.69,-0.32 1.04,-0.46 0.31,-0.13 0.63,-0.25 0.95,-0.35 0.17,-0.06 0.34,-0.11 0.51,-0.15 0.18,-0.07 0.36,-0.12 0.55,-0.16 0.19,-0.06 0.37,-0.1 0.56,-0.14 0.14,-0.04 0.27,-0.07 0.41,-0.09 0.24,-0.05 0.5,-0.1 0.75,-0.13 0.06,-0.02 0.11,-0.03 0.17,-0.03 0.3,-0.05 0.6,-0.09 0.9,-0.12 5.14,-0.54 11.12,0.91 17.52,4.6 19.07,11.01 34.53,37.79 34.53,59.8 0,0.53 -0.01,1.05 -0.03,1.57"
                   style="fill:#ffffff;fill-opacity:1;fill-rule:nonzero;stroke:none"
                   id="path244"
                   inkscape:connector-curvature="0" /></g></g></g></g><g
           id="g252"><g
             id="g254" /><g
             id="g266"><g
               clip-path="url(#clipPath258)"
               id="g264"
               style="opacity:0.10000598"><g
                 transform="translate(238.9863,280.3843)"
                 id="g262"><path
                   d="m 0,0 c 0,-19.42 -14.2,-44.03 -31.02,-53.74 -4.28,-2.47 -8.4,-3.77 -11.92,-3.77 -6.61,0 -9.65,4.51 -11.02,9.24 2.48,0.59 5.14,1.7 7.87,3.27 16.82,9.71 31.03,34.32 31.03,53.74 0,2.1 -0.18,5.3 -1.09,8.4 1.42,0.34 2.77,0.51 4.05,0.51 C -1.17,17.65 0,5.31 0,0"
                   style="fill:#000000;fill-opacity:1;fill-rule:nonzero;stroke:none"
                   id="path260"
                   inkscape:connector-curvature="0" /></g></g></g></g><g
           id="g268"><g
             id="g270" /><g
             id="g282"><g
               clip-path="url(#clipPath274)"
               id="g280"
               style="opacity:0.69999701"><g
                 transform="translate(232.9463,283.7744)"
                 id="g278"><path
                   d="m 0,0 c 0,-19.42 -14.2,-44.03 -31.02,-53.74 -4.28,-2.47 -8.4,-3.77 -11.92,-3.77 -0.74,0 -1.44,0.06 -2.09,0.17 -1.38,1.62 -2.29,3.62 -2.89,5.68 -0.9,3.1 -1.09,6.3 -1.09,8.41 0,19.42 14.21,44.03 31.03,53.74 2.73,1.57 5.39,2.67 7.87,3.26 1.42,0.34 2.77,0.51 4.05,0.51 0.75,0 1.44,-0.06 2.1,-0.17 C -0.51,10.02 0,3.49 0,0"
                   style="fill:#ffffff;fill-opacity:1;fill-rule:nonzero;stroke:none"
                   id="path276"
                   inkscape:connector-curvature="0" /></g></g></g></g></g></g><g
       id="g284"><g
         id="g286"
         clip-path="url(#clipPath290)"><g
           id="g292"
           transform="translate(257.1729,304.0254)"><path
             d="m 0,0 v -22.14 c 0,-1.657 1.163,-2.329 2.598,-1.5 l 145.099,83.773 c 1.435,0.828 2.598,2.843 2.598,4.5 l -10e-4,22.14 c 0,1.658 -1.163,2.329 -2.598,1.5 L 2.598,4.5 C 1.163,3.671 0,1.657 0,0"
             style="fill:#e6e6e6;fill-opacity:1;fill-rule:nonzero;stroke:none"
             id="path294"
             inkscape:connector-curvature="0" /></g><g
           id="g296"
           transform="translate(259.7705,308.5254)"><path
             d="M 0,0 25.841,14.919 25.837,-13.224 0,-28.14 c -1.435,-0.829 -2.598,-0.157 -2.598,1.5 V -4.5 c 0,1.657 1.163,3.671 2.598,4.5"
             style="fill:#27debf;fill-opacity:1;fill-rule:nonzero;stroke:none"
             id="path298"
             inkscape:connector-curvature="0" /></g><g
           id="g300"
           transform="translate(271.2559,296.6592)"><path
             d="m 0,0 c -1.127,-0.65 -2.152,-0.807 -2.809,-0.426 -0.658,0.379 -1.035,1.343 -1.035,2.645 0,3.344 2.448,7.583 5.344,9.255 0.722,0.417 1.401,0.63 1.969,0.63 0.319,0 0.602,-0.067 0.839,-0.204 C 4.966,11.521 5.343,10.557 5.343,9.255 5.343,5.91 2.896,1.672 0,0 M 5.808,14.499 C 4.173,15.441 2.11,15.291 0,14.072 -3.838,11.856 -6.844,6.65 -6.844,2.219 c 0,-1.771 0.481,-3.233 1.368,-4.265 l -2.749,-4.761 c -0.414,-0.717 -0.169,-1.634 0.549,-2.048 0.237,-0.137 0.494,-0.202 0.749,-0.202 0.518,0 1.023,0.269 1.3,0.75 l 2.75,4.763 c 0.294,-0.056 0.593,-0.093 0.902,-0.093 1.097,0 2.279,0.348 3.475,1.039 3.837,2.215 6.843,7.422 6.843,11.853 0,2.437 -0.901,4.3 -2.535,5.244"
             style="fill:#ffffff;fill-opacity:1;fill-rule:nonzero;stroke:none"
             id="path302"
             inkscape:connector-curvature="0" /></g></g></g></g></svg>