<svg width="100" height="100" viewBox="0 0 100 100" fill="none" xmlns="http://www.w3.org/2000/svg">
<path fill-rule="evenodd" clip-rule="evenodd" d="M32.9989 40.5112C32.9989 49.6236 25.6118 57.0106 16.4994 57.0106C7.38705 57.0106 0 49.6236 0 40.5112C0 31.3988 7.38705 24.0117 16.4994 24.0117C25.6118 24.0117 32.9989 31.3988 32.9989 40.5112ZM17.0176 41.5556V40.9873V40.1256V36.2208C17.1154 36.1841 17.2621 36.1535 17.4576 36.1291C17.6532 36.0924 17.8609 36.0741 18.0809 36.0741C18.5209 36.0741 18.8387 36.1535 19.0342 36.3124C19.242 36.4591 19.3459 36.7402 19.3459 37.1557V40.1256V40.9873V41.5189C19.3459 42.1422 19.5109 42.5944 19.8409 42.8755C20.1709 43.1566 20.6292 43.2972 21.2158 43.2972C21.5947 43.2972 21.9125 43.2605 22.1691 43.1872C22.438 43.1139 22.6397 43.0344 22.7741 42.9489V40.9873V40.1256V36.2208C22.8719 36.1841 23.0124 36.1535 23.1958 36.1291C23.3913 36.0924 23.5991 36.0741 23.8191 36.0741C24.2713 36.0741 24.5952 36.1535 24.7907 36.3124C24.9862 36.4591 25.084 36.7402 25.084 37.1557V40.1256V40.9873V43.1689C25.084 43.45 25.0351 43.6883 24.9374 43.8838C24.8396 44.0672 24.6624 44.2322 24.4057 44.3788C24.0635 44.5988 23.6174 44.7821 23.0674 44.9288C22.5174 45.0755 21.8941 45.1488 21.1975 45.1488C20.3542 45.1488 19.6148 45.0205 18.9792 44.7638C18.3559 44.5071 17.8732 44.116 17.5309 43.5905C17.1887 43.065 17.0176 42.3867 17.0176 41.5556ZM9.6568 41.5777C9.79846 42.115 10.0633 42.5291 10.4512 42.8201C10.9523 43.1745 11.5756 43.3517 12.3212 43.3517C12.8345 43.3517 13.3111 43.2784 13.7511 43.1317C14.1911 42.9728 14.5394 42.8078 14.7961 42.6367C14.9672 42.7345 15.1077 42.8689 15.2177 43.0401C15.3277 43.2112 15.3827 43.3945 15.3827 43.59C15.3827 43.9078 15.2422 44.1889 14.9611 44.4333C14.68 44.6656 14.295 44.8428 13.8061 44.965C13.3295 45.0872 12.7856 45.1483 12.1745 45.1483C11.2212 45.1483 10.3779 44.9711 9.6446 44.6167C8.92351 44.2622 8.3552 43.7367 7.93966 43.0401C7.53634 42.3312 7.33468 41.4634 7.33468 40.4368C7.33468 39.6791 7.45078 39.0191 7.683 38.4569C7.91521 37.8825 8.23298 37.4119 8.6363 37.0453C9.03962 36.6664 9.49794 36.3853 10.0113 36.202C10.5368 36.0186 11.0929 35.927 11.6795 35.927C12.4862 35.927 13.195 36.092 13.8061 36.4219C14.4172 36.7397 14.8939 37.1858 15.2361 37.7602C15.5783 38.3347 15.7494 38.9946 15.7494 39.7402C15.7494 40.0824 15.6577 40.339 15.4744 40.5101C15.3033 40.6812 15.0589 40.7912 14.7411 40.8401L9.6568 41.5777ZM13.5678 39.3552L9.52343 39.9482C9.56459 39.2482 9.76997 38.7022 10.1396 38.3102C10.5429 37.8825 11.0562 37.6686 11.6795 37.6686C12.2662 37.6686 12.7184 37.8397 13.0362 38.1819C13.3539 38.5119 13.5311 38.903 13.5678 39.3552ZM94.5898 38.8581C95.372 38.8581 96.0686 39.0109 96.6797 39.3164C97.303 39.6219 97.7919 40.0925 98.1463 40.728C98.5008 41.3513 98.678 42.158 98.678 43.1479V48.7577H96.3864V43.4413C96.3864 42.5735 96.1786 41.9258 95.7631 41.498C95.3597 41.0702 94.7914 40.8563 94.0581 40.8563C93.5204 40.8563 93.0437 40.9663 92.6282 41.1863C92.2126 41.4063 91.8887 41.7363 91.6565 42.1763C91.4365 42.6041 91.3265 43.1479 91.3265 43.8079V48.7577H89.035V38.9681H91.2166V40.2366C91.5141 39.8818 91.8807 39.5934 92.3165 39.3714C92.9765 39.0292 93.7342 38.8581 94.5898 38.8581ZM79.3719 48.2444C80.1908 48.6722 81.1441 48.8861 82.2318 48.8861C83.0874 48.8861 83.8451 48.7516 84.5051 48.4828C85.1773 48.2017 85.7334 47.8044 86.1734 47.2911L84.9451 45.8795C84.6029 46.2462 84.2118 46.515 83.7718 46.6862C83.3318 46.8573 82.8368 46.9428 82.2868 46.9428C81.6513 46.9428 81.0891 46.8206 80.6002 46.5762C80.1114 46.3317 79.7325 45.9834 79.4636 45.5312C79.2942 45.2462 79.1781 44.9346 79.1154 44.5962H86.7967C86.8089 44.4862 86.815 44.3701 86.815 44.2479C86.8272 44.1257 86.8334 44.0157 86.8334 43.9179C86.8334 42.8913 86.6195 41.9991 86.1917 41.2413C85.7639 40.4836 85.1773 39.8969 84.4318 39.4814C83.6862 39.0659 82.8368 38.8581 81.8835 38.8581C80.9058 38.8581 80.0319 39.072 79.2619 39.4997C78.5042 39.9275 77.9053 40.5202 77.4653 41.278C77.0376 42.0235 76.8237 42.8852 76.8237 43.8629C76.8237 44.8284 77.0437 45.6901 77.4837 46.4478C77.9359 47.2056 78.5653 47.8044 79.3719 48.2444ZM79.095 43.0746C79.1451 42.7074 79.2497 42.3774 79.4086 42.0846C79.653 41.6447 79.983 41.3024 80.3986 41.058C80.8263 40.8136 81.3213 40.6914 81.8835 40.6914C82.4335 40.6914 82.9163 40.8136 83.3318 41.058C83.7596 41.3024 84.0957 41.6385 84.3401 42.0663C84.5129 42.3688 84.6216 42.7049 84.6661 43.0746H79.095ZM67.2097 48.7584V47.3101L72.5896 40.802H67.3197V38.9688H75.4961V40.417L70.1163 46.9252H75.6611V48.7584H67.2097ZM62.7174 38.9687V48.7583H65.0089V38.9687H62.7174ZM62.809 36.9521C63.0901 37.2209 63.4445 37.3554 63.8723 37.3554C64.3123 37.3554 64.6667 37.2209 64.9356 36.9521C65.2045 36.671 65.3389 36.3287 65.3389 35.9254C65.3389 35.5466 65.1984 35.2349 64.9173 34.9905C64.6484 34.7338 64.3001 34.6055 63.8723 34.6055C63.4445 34.6055 63.0901 34.7399 62.809 35.0088C62.5401 35.2654 62.4057 35.5893 62.4057 35.9804C62.4057 36.3593 62.5401 36.6832 62.809 36.9521ZM58.6321 48.8873C57.5566 48.8873 56.7255 48.6123 56.1388 48.0623C55.5522 47.5001 55.2589 46.6751 55.2589 45.5874V40.8759H53.6456V39.0426H55.2589V36.806H57.5505V39.0426H60.172V40.8759H57.5505V45.5324C57.5505 45.9968 57.6666 46.3573 57.8988 46.614C58.1432 46.8707 58.4793 46.999 58.9071 46.999C59.4204 46.999 59.8482 46.8645 60.1904 46.5957L60.832 48.2273C60.5631 48.4473 60.2332 48.6123 59.8421 48.7223C59.451 48.8323 59.0476 48.8873 58.6321 48.8873ZM49.648 38.9687V48.7583H51.9396V38.9687H49.648ZM49.7397 36.9521C50.0208 37.2209 50.3752 37.3554 50.803 37.3554C51.2429 37.3554 51.5974 37.2209 51.8663 36.9521C52.1351 36.671 52.2696 36.3287 52.2696 35.9254C52.2696 35.5466 52.129 35.2349 51.8479 34.9905C51.579 34.7338 51.2307 34.6055 50.803 34.6055C50.3752 34.6055 50.0208 34.7399 49.7397 35.0088C49.4708 35.2654 49.3363 35.5893 49.3363 35.9804C49.3363 36.3593 49.4708 36.6832 49.7397 36.9521ZM43.5765 48.8861C42.5499 48.8861 41.6333 48.6722 40.8266 48.2444C40.0322 47.8044 39.4089 47.2056 38.9567 46.4478C38.5045 45.6901 38.2784 44.8284 38.2784 43.8629C38.2784 42.8852 38.5045 42.0235 38.9567 41.278C39.4089 40.5202 40.0322 39.9275 40.8266 39.4997C41.6333 39.072 42.5499 38.8581 43.5765 38.8581C44.5298 38.8581 45.367 39.0536 46.0881 39.4447C46.8214 39.8236 47.3775 40.3858 47.7564 41.1313L45.9965 42.158C45.7031 41.6935 45.3426 41.3513 44.9148 41.1313C44.4993 40.9113 44.0471 40.8013 43.5582 40.8013C42.996 40.8013 42.4888 40.9236 42.0366 41.168C41.5844 41.4124 41.23 41.7669 40.9733 42.2313C40.7166 42.6835 40.5883 43.2274 40.5883 43.8629C40.5883 44.4984 40.7166 45.0484 40.9733 45.5129C41.23 45.9651 41.5844 46.3134 42.0366 46.5578C42.4888 46.8023 42.996 46.9245 43.5582 46.9245C44.0471 46.9245 44.4993 46.8145 44.9148 46.5945C45.3426 46.3745 45.7031 46.0323 45.9965 45.5679L47.7564 46.5945C47.3775 47.3278 46.8214 47.8961 46.0881 48.2994C45.367 48.6905 44.5298 48.8861 43.5765 48.8861ZM92.5386 66.5818C93.3574 67.0096 94.3108 67.2235 95.3985 67.2235C96.254 67.2235 97.0118 67.089 97.6717 66.8201C98.3439 66.539 98.9 66.1418 99.34 65.6285L98.1117 64.2169C97.7695 64.5836 97.3784 64.8524 96.9384 65.0235C96.4985 65.1946 96.0035 65.2802 95.4535 65.2802C94.818 65.2802 94.2557 65.158 93.7669 64.9135C93.278 64.6691 92.8991 64.3208 92.6302 63.8686C92.4608 63.5836 92.3448 63.272 92.2821 62.9336H99.9633C99.9756 62.8236 99.9817 62.7075 99.9817 62.5853C99.9939 62.4631 100 62.3531 100 62.2553C100 61.2287 99.7861 60.3365 99.3584 59.5787C98.9306 58.821 98.3439 58.2343 97.5984 57.8188C96.8529 57.4032 96.0035 57.1955 95.0502 57.1955C94.0724 57.1955 93.1986 57.4094 92.4286 57.8371C91.6708 58.2649 91.072 58.8576 90.632 59.6154C90.2042 60.3609 89.9903 61.2226 89.9903 62.2003C89.9903 63.1658 90.2103 64.0275 90.6503 64.7852C91.1025 65.543 91.7319 66.1418 92.5386 66.5818ZM92.2616 61.412C92.3118 61.0448 92.4163 60.7148 92.5753 60.422C92.8197 59.982 93.1497 59.6398 93.5652 59.3954C93.993 59.151 94.488 59.0287 95.0502 59.0287C95.6002 59.0287 96.0829 59.151 96.4985 59.3954C96.9262 59.6398 97.2623 59.9759 97.5068 60.4037C97.6796 60.7062 97.7883 61.0423 97.8328 61.412H92.2616ZM84.5958 67.2235C83.5691 67.2235 82.6525 67.0096 81.8459 66.5818C81.0514 66.1418 80.4281 65.543 79.9759 64.7852C79.5237 64.0275 79.2976 63.1658 79.2976 62.2003C79.2976 61.2226 79.5237 60.3609 79.9759 59.6154C80.4281 58.8576 81.0514 58.2649 81.8459 57.8371C82.6525 57.4094 83.5691 57.1955 84.5958 57.1955C85.5491 57.1955 86.3863 57.391 87.1074 57.7821C87.8407 58.161 88.3968 58.7232 88.7756 59.4687L87.0157 60.4954C86.7224 60.0309 86.3618 59.6887 85.9341 59.4687C85.5185 59.2487 85.0663 59.1387 84.5774 59.1387C84.0152 59.1387 83.508 59.261 83.0558 59.5054C82.6036 59.7498 82.2492 60.1043 81.9925 60.5687C81.7359 61.0209 81.6075 61.5648 81.6075 62.2003C81.6075 62.8358 81.7359 63.3858 81.9925 63.8502C82.2492 64.3025 82.6036 64.6508 83.0558 64.8952C83.508 65.1396 84.0152 65.2619 84.5774 65.2619C85.0663 65.2619 85.5185 65.1519 85.9341 64.9319C86.3618 64.7119 86.7224 64.3697 87.0157 63.9052L88.7756 64.9319C88.3968 65.6652 87.8407 66.2335 87.1074 66.6368C86.3863 67.0279 85.5491 67.2235 84.5958 67.2235ZM74.998 57.6538C74.3869 57.3482 73.6903 57.1955 72.9081 57.1955C72.0526 57.1955 71.2948 57.3666 70.6348 57.7088C70.199 57.9308 69.8324 58.2192 69.5349 58.574V57.3055H67.3533V67.0951H69.6449V62.1453C69.6449 61.4853 69.7549 60.9415 69.9748 60.5137C70.2071 60.0737 70.5309 59.7437 70.9465 59.5237C71.362 59.3037 71.8387 59.1937 72.3764 59.1937C73.1097 59.1937 73.6781 59.4076 74.0814 59.8354C74.4969 60.2631 74.7047 60.9109 74.7047 61.7786V67.0951H76.9963V61.4853C76.9963 60.4954 76.8191 59.6887 76.4646 59.0654C76.1102 58.4299 75.6213 57.9593 74.998 57.6538ZM60.3672 67.2235C59.2795 67.2235 58.3262 67.0096 57.5073 66.5818C56.7007 66.1418 56.0712 65.543 55.619 64.7852C55.179 64.0275 54.959 63.1658 54.959 62.2003C54.959 61.2226 55.1729 60.3609 55.6007 59.6154C56.0407 58.8576 56.6395 58.2649 57.3973 57.8371C58.1673 57.4094 59.0411 57.1955 60.0189 57.1955C60.9722 57.1955 61.8216 57.4032 62.5671 57.8188C63.3127 58.2343 63.8993 58.821 64.3271 59.5787C64.7548 60.3365 64.9687 61.2287 64.9687 62.2553C64.9687 62.3531 64.9626 62.4631 64.9504 62.5853C64.9504 62.7075 64.9443 62.8236 64.932 62.9336H57.2508C57.3135 63.272 57.4295 63.5836 57.599 63.8686C57.8678 64.3208 58.2467 64.6691 58.7356 64.9135C59.2245 65.158 59.7867 65.2802 60.4222 65.2802C60.9722 65.2802 61.4672 65.1946 61.9071 65.0235C62.3471 64.8524 62.7382 64.5836 63.0804 64.2169L64.3087 65.6285C63.8687 66.1418 63.3127 66.539 62.6405 66.8201C61.9805 67.089 61.2227 67.2235 60.3672 67.2235ZM57.544 60.422C57.385 60.7148 57.2805 61.0448 57.2303 61.412H62.8015C62.757 61.0423 62.6483 60.7062 62.4755 60.4037C62.231 59.9759 61.8949 59.6398 61.4672 59.3954C61.0516 59.151 60.5689 59.0287 60.0189 59.0287C59.4567 59.0287 58.9617 59.151 58.5339 59.3954C58.1184 59.6398 57.7884 59.982 57.544 60.422ZM50.2831 57.306V67.0957H52.5747V57.306H50.2831ZM50.3747 55.2894C50.6558 55.5583 51.0103 55.6928 51.438 55.6928C51.878 55.6928 52.2324 55.5583 52.5013 55.2894C52.7702 55.0083 52.9046 54.6661 52.9046 54.2628C52.9046 53.8839 52.7641 53.5723 52.483 53.3278C52.2141 53.0712 51.8658 52.9429 51.438 52.9429C51.0103 52.9429 50.6558 53.0773 50.3747 53.3462C50.1059 53.6028 49.9714 53.9267 49.9714 54.3178C49.9714 54.6967 50.1059 55.0206 50.3747 55.2894ZM44.0287 67.2235C43.002 67.2235 42.0854 67.0096 41.2788 66.5818C40.4843 66.1418 39.861 65.543 39.4088 64.7852C38.9566 64.0275 38.7305 63.1658 38.7305 62.2003C38.7305 61.2226 38.9566 60.3609 39.4088 59.6154C39.861 58.8576 40.4843 58.2649 41.2788 57.8371C42.0854 57.4094 43.002 57.1955 44.0287 57.1955C44.982 57.1955 45.8192 57.391 46.5402 57.7821C47.2736 58.161 47.8296 58.7232 48.2085 59.4687L46.4486 60.4954C46.1553 60.0309 45.7947 59.6887 45.367 59.4687C44.9514 59.2487 44.4992 59.1387 44.0103 59.1387C43.4481 59.1387 42.9409 59.261 42.4887 59.5054C42.0365 59.7498 41.6821 60.1043 41.4254 60.5687C41.1688 61.0209 41.0404 61.5648 41.0404 62.2003C41.0404 62.8358 41.1688 63.3858 41.4254 63.8502C41.6821 64.3025 42.0365 64.6508 42.4887 64.8952C42.9409 65.1396 43.4481 65.2619 44.0103 65.2619C44.4992 65.2619 44.9514 65.1519 45.367 64.9319C45.7947 64.7119 46.1553 64.3697 46.4486 63.9052L48.2085 64.9319C47.8296 65.6652 47.2736 66.2335 46.5402 66.6368C45.8192 67.0279 44.982 67.2235 44.0287 67.2235ZM30.5788 66.9118C31.3365 67.1196 32.1248 67.2235 32.9437 67.2235C33.8603 67.2235 34.6486 67.1012 35.3086 66.8568C35.9686 66.6002 36.4758 66.2457 36.8302 65.7935C37.1969 65.3413 37.3802 64.8097 37.3802 64.1986C37.3802 63.6486 37.2702 63.2025 37.0502 62.8603C36.8302 62.5181 36.5369 62.2553 36.1702 62.072C35.8158 61.8764 35.4247 61.7236 34.9969 61.6137C34.5692 61.5037 34.1353 61.4242 33.6953 61.3753C33.2676 61.3142 32.8765 61.2409 32.522 61.1553C32.1676 61.0698 31.8804 60.9537 31.6604 60.807C31.4404 60.6604 31.3304 60.4404 31.3304 60.147C31.3304 59.8293 31.4954 59.5665 31.8254 59.3587C32.1676 59.151 32.687 59.0471 33.3837 59.0471C33.8481 59.0471 34.3125 59.1021 34.777 59.2121C35.2536 59.3098 35.7241 59.4993 36.1886 59.7804L37.0685 58.0388C36.6286 57.7699 36.0725 57.5621 35.4003 57.4155C34.7281 57.2688 34.062 57.1955 33.402 57.1955C32.522 57.1955 31.7582 57.3238 31.1104 57.5805C30.4749 57.8249 29.9799 58.1793 29.6255 58.6438C29.271 59.096 29.0938 59.6337 29.0938 60.257C29.0938 60.8192 29.2038 61.2714 29.4238 61.6137C29.6438 61.9559 29.931 62.2309 30.2854 62.4386C30.6399 62.6342 31.031 62.7869 31.4587 62.8969C31.8987 62.9947 32.3326 63.0742 32.7604 63.1353C33.2003 63.1964 33.5975 63.2636 33.952 63.3369C34.3064 63.4103 34.5936 63.5203 34.8136 63.6669C35.0336 63.8014 35.1436 64.003 35.1436 64.2719C35.1436 64.6019 34.9786 64.8647 34.6486 65.0602C34.3309 65.2558 33.8114 65.3535 33.0903 65.3535C32.4793 65.3535 31.8682 65.2619 31.2571 65.0785C30.646 64.8952 30.1204 64.663 29.6805 64.3819L28.8005 66.1235C29.2405 66.429 29.8332 66.6918 30.5788 66.9118Z" fill="#000000"/>
</svg>
